<svg version="1.1" id="Layer_1" xmlns="http://www.w3.org/2000/svg" xmlns:xlink="http://www.w3.org/1999/xlink" x="0px" y="0px"
	 width="100%" viewBox="0 0 322 153" enable-background="new 0 0 322 153" xml:space="preserve">
<path fill="#FEFEFE" opacity="1.000000" stroke="none" 
	d="
M192.000000,154.000000 
	C128.000000,154.000000 64.500015,154.000000 1.000017,154.000000 
	C1.000011,103.000015 1.000011,52.000027 1.000006,1.000031 
	C108.333305,1.000021 215.666611,1.000021 322.999939,1.000010 
	C322.999939,51.999969 322.999939,102.999939 322.999969,153.999954 
	C279.500000,154.000000 236.000000,154.000000 192.000000,154.000000 
M71.013611,68.500458 
	C71.013611,68.500458 71.085823,68.974228 70.926292,69.824081 
	C70.964111,71.550362 71.001930,73.276634 71.326454,75.843933 
	C77.872536,75.990936 84.418625,76.137939 90.939445,77.021355 
	C90.145233,83.433167 86.838417,88.186966 81.266457,91.327682 
	C70.112228,97.614922 55.502369,93.563728 49.079678,82.470558 
	C42.627651,71.326714 46.088696,56.434990 57.014637,50.033112 
	C67.236115,44.044003 77.074409,45.491177 86.405945,53.093853 
	C88.488342,50.887272 90.478394,48.778557 92.634979,46.493366 
	C86.683815,40.711666 79.990417,37.639397 72.298134,37.027451 
	C58.127956,35.900158 45.479355,43.325916 38.955936,56.309273 
	C33.358982,67.448715 35.505672,82.222198 44.178970,92.254044 
	C52.932606,102.378807 67.615730,106.285294 80.626686,101.951065 
	C95.044868,97.148048 104.100540,80.795883 99.554291,67.133514 
	C93.215019,67.133514 86.734833,67.039108 80.259491,67.175179 
	C77.231644,67.238808 74.213165,67.747871 71.013611,68.500458 
M201.835007,95.595703 
	C205.982010,98.126282 209.867142,101.894051 214.348984,102.842751 
	C218.916901,103.809677 224.071671,102.004143 228.961136,101.413506 
	C229.499176,107.451691 227.739792,111.228790 222.894699,113.304001 
	C217.199432,115.743355 213.003677,114.147537 206.573303,106.959030 
	C204.116058,107.997322 201.584183,109.067146 199.045761,110.139725 
	C203.212418,119.425568 211.095795,123.892921 220.968994,122.873032 
	C229.313644,122.011040 236.925293,116.310204 237.409805,107.963966 
	C238.291306,92.778931 237.660049,77.506081 237.660049,61.546818 
	C234.553589,62.071861 231.383606,62.607639 228.353424,63.119793 
	C224.369949,62.358723 220.055084,60.634476 215.865524,60.898510 
	C201.940292,61.776108 190.613602,79.804764 201.835007,95.595703 
M176.538284,103.139740 
	C188.792114,100.218575 195.621674,89.447327 192.991119,77.191154 
	C190.566345,65.893715 179.328278,58.700104 167.651352,60.970890 
	C156.262833,63.185593 148.540344,74.085724 150.471100,85.220490 
	C152.666763,97.883194 162.990799,105.283119 176.538284,103.139740 
M103.462868,80.783791 
	C103.488197,81.946732 103.424538,83.119553 103.552505,84.271088 
	C104.945999,96.810005 115.992531,105.387779 128.126648,103.381508 
	C141.288391,101.205338 148.929031,90.075249 146.072067,77.240494 
	C143.824326,67.142662 135.167114,60.407661 124.694283,60.609333 
	C113.502914,60.824844 105.498131,68.149429 103.462868,80.783791 
M282.628296,83.035881 
	C287.496338,81.019310 292.364380,79.002739 297.150543,77.020081 
	C294.858307,66.930489 287.246674,60.496861 278.154602,60.590950 
	C268.337372,60.692547 260.684906,67.239304 258.619354,77.303612 
	C256.510071,87.581024 261.465668,97.925751 270.399231,101.893997 
	C279.820374,106.078827 290.792725,102.958298 297.079803,94.019165 
	C294.790344,92.465569 292.504700,90.914589 290.280518,89.405289 
	C281.481415,97.266426 273.693604,96.999046 269.633850,88.567566 
	C273.739502,86.821709 277.832184,85.081367 282.628296,83.035881 
M244.669250,87.497116 
	C244.669250,92.257957 244.669250,97.018799 244.669250,101.853180 
	C248.182892,101.853180 251.034729,101.853180 253.762939,101.853180 
	C253.762939,80.793549 253.762939,60.129108 253.762939,39.446182 
	C250.623978,39.446182 247.881516,39.446182 245.274597,39.446182 
	C245.013443,40.057102 244.775162,40.355076 244.774231,40.653790 
	C244.726624,55.934994 244.699234,71.216263 244.669250,87.497116 
z"/>
<path fill="#5786EC" opacity="1.000000" stroke="none" 
	d="
M71.039742,75.002914 
	C71.001930,73.276634 70.964111,71.550362 71.156998,69.325455 
	C71.387711,68.826828 71.522690,68.405067 71.522690,68.405067 
	C71.522690,68.405067 71.190437,68.055046 71.190437,68.055046 
	C74.213165,67.747871 77.231644,67.238808 80.259491,67.175179 
	C86.734833,67.039108 93.215019,67.133514 99.554291,67.133514 
	C104.100540,80.795883 95.044868,97.148048 80.626686,101.951065 
	C67.615730,106.285294 52.932606,102.378807 44.178970,92.254044 
	C35.505672,82.222198 33.358982,67.448715 38.955936,56.309273 
	C45.479355,43.325916 58.127956,35.900158 72.298134,37.027451 
	C79.990417,37.639397 86.683815,40.711666 92.634979,46.493366 
	C90.478394,48.778557 88.488342,50.887272 86.405945,53.093853 
	C77.074409,45.491177 67.236115,44.044003 57.014637,50.033112 
	C46.088696,56.434990 42.627651,71.326714 49.079678,82.470558 
	C55.502369,93.563728 70.112228,97.614922 81.266457,91.327682 
	C86.838417,88.186966 90.145233,83.433167 90.719826,76.292725 
	C84.013382,75.377037 77.526566,75.189972 71.039742,75.002914 
z"/>
<path fill="#5686EC" opacity="1.000000" stroke="none" 
	d="
M201.595520,95.322899 
	C190.613602,79.804764 201.940292,61.776108 215.865524,60.898510 
	C220.055084,60.634476 224.369949,62.358723 228.353424,63.119793 
	C231.383606,62.607639 234.553589,62.071861 237.660049,61.546818 
	C237.660049,77.506081 238.291306,92.778931 237.409805,107.963966 
	C236.925293,116.310204 229.313644,122.011040 220.968994,122.873032 
	C211.095795,123.892921 203.212418,119.425568 199.045761,110.139725 
	C201.584183,109.067146 204.116058,107.997322 206.573303,106.959030 
	C213.003677,114.147537 217.199432,115.743355 222.894699,113.304001 
	C227.739792,111.228790 229.499176,107.451691 228.961136,101.413506 
	C224.071671,102.004143 218.916901,103.809677 214.348984,102.842751 
	C209.867142,101.894051 205.982010,98.126282 201.595520,95.322899 
M220.050583,69.196922 
	C214.210190,68.884125 209.975739,71.579330 207.837265,76.790619 
	C205.765060,81.840431 206.302185,86.900703 210.131271,91.215736 
	C215.127335,96.845871 223.472763,96.308304 227.682465,90.096062 
	C233.027832,82.207947 228.992020,71.214890 220.050583,69.196922 
z"/>
<path fill="#F2C248" opacity="1.000000" stroke="none" 
	d="
M176.135193,103.233261 
	C162.990799,105.283119 152.666763,97.883194 150.471100,85.220490 
	C148.540344,74.085724 156.262833,63.185593 167.651352,60.970890 
	C179.328278,58.700104 190.566345,65.893715 192.991119,77.191154 
	C195.621674,89.447327 188.792114,100.218575 176.135193,103.233261 
M159.944077,82.444466 
	C160.091873,87.949760 162.486893,92.548363 167.694611,94.003654 
	C170.943390,94.911545 175.396408,94.368797 178.376526,92.755020 
	C183.760986,89.839287 185.199417,82.995506 182.892044,76.930435 
	C181.012817,71.990852 175.566589,68.532005 170.757614,69.224007 
	C164.518204,70.121826 160.895187,74.273079 159.944077,82.444466 
z"/>
<path fill="#D85645" opacity="1.000000" stroke="none" 
	d="
M103.503220,80.373291 
	C105.498131,68.149429 113.502914,60.824844 124.694283,60.609333 
	C135.167114,60.407661 143.824326,67.142662 146.072067,77.240494 
	C148.929031,90.075249 141.288391,101.205338 128.126648,103.381508 
	C115.992531,105.387779 104.945999,96.810005 103.552505,84.271088 
	C103.424538,83.119553 103.488197,81.946732 103.503220,80.373291 
M137.080475,80.792450 
	C135.525543,72.427307 129.289597,67.596695 122.529404,69.520615 
	C115.808830,71.433258 112.085808,77.474510 113.253693,84.572075 
	C114.304001,90.955132 119.562004,95.325783 125.828369,95.024620 
	C132.341537,94.711586 136.742020,89.489571 137.080475,80.792450 
z"/>
<path fill="#D85646" opacity="1.000000" stroke="none" 
	d="
M282.276550,83.188461 
	C277.832184,85.081367 273.739502,86.821709 269.633850,88.567566 
	C273.693604,96.999046 281.481415,97.266426 290.280518,89.405289 
	C292.504700,90.914589 294.790344,92.465569 297.079803,94.019165 
	C290.792725,102.958298 279.820374,106.078827 270.399231,101.893997 
	C261.465668,97.925751 256.510071,87.581024 258.619354,77.303612 
	C260.684906,67.239304 268.337372,60.692547 278.154602,60.590950 
	C287.246674,60.496861 294.858307,66.930489 297.150543,77.020081 
	C292.364380,79.002739 287.496338,81.019310 282.276550,83.188461 
M285.847992,72.656921 
	C282.744263,68.659439 278.833923,67.983521 274.419250,70.090218 
	C269.959778,72.218285 267.481476,75.622421 267.782654,81.453331 
	C274.187744,78.604866 280.030579,76.006454 285.847992,72.656921 
z"/>
<path fill="#5AA75D" opacity="1.000000" stroke="none" 
	d="
M244.669464,86.997322 
	C244.699234,71.216263 244.726624,55.934994 244.774231,40.653790 
	C244.775162,40.355076 245.013443,40.057102 245.274597,39.446182 
	C247.881516,39.446182 250.623978,39.446182 253.762939,39.446182 
	C253.762939,60.129108 253.762939,80.793549 253.762939,101.853180 
	C251.034729,101.853180 248.182892,101.853180 244.669250,101.853180 
	C244.669250,97.018799 244.669250,92.257957 244.669464,86.997322 
z"/>
<path fill="#4276E2" opacity="1.000000" stroke="none" 
	d="
M71.183098,75.423424 
	C77.526566,75.189972 84.013382,75.377037 90.732452,75.924530 
	C84.418625,76.137939 77.872536,75.990936 71.183098,75.423424 
z"/>
<path fill="#4276E2" opacity="1.000000" stroke="none" 
	d="
M71.102020,68.277756 
	C71.190437,68.055046 71.522690,68.405067 71.522690,68.405067 
	C71.522690,68.405067 71.387711,68.826828 71.236771,68.900528 
	C71.085823,68.974228 71.013611,68.500458 71.102020,68.277756 
z"/>
<path fill="#FBFCFF" opacity="1.000000" stroke="none" 
	d="
M220.425934,69.293991 
	C228.992020,71.214890 233.027832,82.207947 227.682465,90.096062 
	C223.472763,96.308304 215.127335,96.845871 210.131271,91.215736 
	C206.302185,86.900703 205.765060,81.840431 207.837265,76.790619 
	C209.975739,71.579330 214.210190,68.884125 220.425934,69.293991 
z"/>
<path fill="#FFFEFB" opacity="1.000000" stroke="none" 
	d="
M159.944901,82.028351 
	C160.895187,74.273079 164.518204,70.121826 170.757614,69.224007 
	C175.566589,68.532005 181.012817,71.990852 182.892044,76.930435 
	C185.199417,82.995506 183.760986,89.839287 178.376526,92.755020 
	C175.396408,94.368797 170.943390,94.911545 167.694611,94.003654 
	C162.486893,92.548363 160.091873,87.949760 159.944901,82.028351 
z"/>
<path fill="#FEFBFA" opacity="1.000000" stroke="none" 
	d="
M137.095566,81.214249 
	C136.742020,89.489571 132.341537,94.711586 125.828369,95.024620 
	C119.562004,95.325783 114.304001,90.955132 113.253693,84.572075 
	C112.085808,77.474510 115.808830,71.433258 122.529404,69.520615 
	C129.289597,67.596695 135.525543,72.427307 137.095566,81.214249 
z"/>
<path fill="#FDF6F5" opacity="1.000000" stroke="none" 
	d="
M285.860687,73.032486 
	C280.030579,76.006454 274.187744,78.604866 267.782654,81.453331 
	C267.481476,75.622421 269.959778,72.218285 274.419250,70.090218 
	C278.833923,67.983521 282.744263,68.659439 285.860687,73.032486 
z"/>
</svg>