<svg version="1.1" id="Layer_1" xmlns="http://www.w3.org/2000/svg" xmlns:xlink="http://www.w3.org/1999/xlink" x="0px" y="0px"
	 width="100%" viewBox="0 0 410 165" enable-background="new 0 0 410 165" xml:space="preserve">
<path fill="#FFFDFD" opacity="1.000000" stroke="none" 
	d="
M268.000000,166.000000 
	C178.666672,166.000000 89.833351,166.000000 1.000024,166.000000 
	C1.000016,111.000015 1.000016,56.000034 1.000008,1.000039 
	C137.666641,1.000026 274.333282,1.000026 410.999939,1.000013 
	C410.999939,55.999958 410.999939,110.999916 410.999969,165.999939 
	C363.500000,166.000000 316.000000,166.000000 268.000000,166.000000 
M22.742491,138.243866 
	C23.806963,139.116028 24.835268,140.667938 25.943008,140.726883 
	C28.738081,140.875610 31.566214,140.185654 34.386116,140.139755 
	C37.969761,140.081390 39.132378,138.643127 39.067310,134.944031 
	C38.830116,121.459999 38.974987,107.969261 38.975800,94.481049 
	C38.975941,92.173981 38.975819,89.866905 38.975819,87.559837 
	C39.258904,87.544067 39.541985,87.528297 39.825069,87.512520 
	C45.609909,104.018097 51.394745,120.523674 57.218128,137.139221 
	C63.401569,136.385971 68.957481,135.709183 74.418198,135.043976 
	C74.418198,103.192848 74.418198,71.829384 74.418198,40.556107 
	C68.960968,40.556107 63.915668,40.556107 58.326920,40.556107 
	C58.326920,58.838837 58.326920,76.707329 58.326920,95.995789 
	C51.709942,77.712799 45.656704,60.862488 39.454643,44.067131 
	C38.906124,42.581738 37.488026,40.460690 36.299751,40.339348 
	C31.918514,39.891949 27.464056,40.161606 22.752878,40.161606 
	C22.752878,73.044975 22.752878,105.167038 22.742491,138.243866 
M342.723236,133.064713 
	C343.379913,133.689240 343.973022,134.757233 344.704224,134.862091 
	C347.993042,135.333832 351.384674,135.229263 354.618225,135.908539 
	C358.347778,136.692001 359.921967,135.247299 361.225189,131.900513 
	C364.003448,124.765793 367.238373,117.808907 370.799957,109.593979 
	C374.497955,119.028419 377.629486,127.211014 380.949493,135.316391 
	C381.576141,136.846268 382.772614,139.033173 384.014679,139.265152 
	C389.164154,140.226868 394.431946,140.555191 400.239319,141.178650 
	C399.808472,139.547928 399.679382,138.759644 399.396088,138.031372 
	C393.677185,123.329529 388.053101,108.589005 382.133423,93.968224 
	C380.523560,89.992165 380.280457,86.585037 382.257721,82.637375 
	C385.302795,76.557968 387.825134,70.214569 390.513397,63.959167 
	C393.825317,56.252510 397.079926,48.521214 400.642914,40.132862 
	C395.823975,40.132862 391.837799,40.436874 387.919952,40.049541 
	C383.790771,39.641315 382.149628,41.453320 380.778107,45.108231 
	C378.215759,51.936474 375.009796,58.523190 371.625641,66.225479 
	C368.227051,57.678520 365.408936,50.406261 362.402222,43.212830 
	C361.902405,42.017059 360.628937,40.350979 359.630035,40.291344 
	C354.615082,39.991947 349.572540,40.154076 343.914307,40.154076 
	C349.707275,55.005997 355.057617,68.931419 360.598083,82.780777 
	C361.979248,86.233261 361.948853,89.239693 360.406494,92.676849 
	C354.491791,105.857567 348.835144,119.154083 342.723236,133.064713 
M92.381859,133.679214 
	C106.235413,132.510208 120.088966,131.341202 133.967316,130.170105 
	C133.967316,124.899620 133.967316,120.147369 133.967316,114.853661 
	C124.646530,115.289597 115.612457,115.712128 106.431931,116.141510 
	C106.431931,108.244400 106.431931,100.862877 106.431931,92.854279 
	C113.497368,92.854279 120.240990,92.854279 126.995819,92.854279 
	C126.995819,87.309395 126.995819,82.405319 126.995819,76.958672 
	C119.968781,76.958672 113.242485,76.958672 106.466599,76.958672 
	C106.466599,69.693665 106.466599,62.983398 106.466599,55.692337 
	C115.888206,55.692337 124.938721,55.692337 133.995071,55.692337 
	C133.995071,50.319744 133.995071,45.542797 133.995071,40.511929 
	C119.234238,40.511929 104.709282,40.511929 90.305374,40.511929 
	C90.079994,41.203827 89.887741,41.518795 89.887497,41.833912 
	C89.864731,71.468315 89.840263,101.102783 89.917068,130.736969 
	C89.919701,131.750061 90.947952,132.760483 92.381859,133.679214 
M235.365112,92.105034 
	C237.288620,92.105034 239.212143,92.105034 241.221375,92.105034 
	C241.221375,86.473686 241.221375,81.565926 241.221375,76.121216 
	C234.005386,76.121216 227.095825,76.121216 220.080017,76.121216 
	C220.080017,69.193848 220.080017,62.812859 220.080017,55.758194 
	C229.581116,55.758194 238.785095,55.758194 247.956177,55.758194 
	C247.956177,50.301926 247.956177,45.525738 247.956177,40.472046 
	C233.169144,40.472046 218.628616,40.472046 204.105927,40.472046 
	C204.105927,69.853775 204.105927,98.894905 204.105927,127.927528 
	C209.421783,127.927528 214.335526,127.927528 219.871796,127.927528 
	C219.871796,115.914810 219.871796,104.208374 219.871796,92.104996 
	C225.126587,92.104996 229.761887,92.104996 235.365112,92.105034 
M176.895142,110.499138 
	C176.895142,92.434982 176.895142,74.370819 176.895142,55.781532 
	C182.809875,55.781532 188.040939,55.781532 193.304138,55.781532 
	C193.304138,50.347542 193.304138,45.452114 193.304138,40.560211 
	C176.775925,40.560211 160.601440,40.560211 144.569565,40.560211 
	C144.569565,45.901955 144.569565,50.804485 144.569565,56.200470 
	C150.201981,56.200470 155.439102,56.200470 161.130310,56.200470 
	C161.130310,80.758766 161.130310,104.805054 161.130310,128.582169 
	C166.653519,128.582169 171.679794,128.582169 176.895096,128.582169 
	C176.895096,122.463692 176.895096,116.981003 176.895142,110.499138 
M274.233154,45.619827 
	C274.145813,43.875393 274.058502,42.130955 273.973969,40.442097 
	C268.452454,40.442097 263.536774,40.442097 258.517822,40.442097 
	C258.517822,70.114922 258.517822,99.474091 258.517822,129.184769 
	C272.957367,129.802719 287.020050,130.404556 301.613861,131.029114 
	C301.613861,127.363045 301.336334,124.206169 301.680145,121.118462 
	C302.173126,116.690758 300.869781,114.985336 296.078461,115.012688 
	C288.851379,115.053932 281.619141,114.189720 274.232849,113.699997 
	C274.232849,90.879700 274.232849,68.735588 274.233154,45.619827 
M314.402924,51.531235 
	C314.402924,78.273903 314.402924,105.016571 314.402924,132.221649 
	C320.145477,132.647522 325.329285,133.031967 330.495300,133.415085 
	C330.495300,102.029739 330.495300,71.319756 330.495300,40.407501 
	C325.080688,40.407501 320.012817,40.407501 314.403229,40.407501 
	C314.403229,43.971836 314.403229,47.258278 314.402924,51.531235 
z"/>
<path fill="#D3332C" opacity="1.000000" stroke="none" 
	d="
M22.747684,137.766479 
	C22.752878,105.167038 22.752878,73.044975 22.752878,40.161606 
	C27.464056,40.161606 31.918514,39.891949 36.299751,40.339348 
	C37.488026,40.460690 38.906124,42.581738 39.454643,44.067131 
	C45.656704,60.862488 51.709942,77.712799 58.326920,95.995789 
	C58.326920,76.707329 58.326920,58.838837 58.326920,40.556107 
	C63.915668,40.556107 68.960968,40.556107 74.418198,40.556107 
	C74.418198,71.829384 74.418198,103.192848 74.418198,135.043976 
	C68.957481,135.709183 63.401569,136.385971 57.218128,137.139221 
	C51.394745,120.523674 45.609909,104.018097 39.825069,87.512520 
	C39.541985,87.528297 39.258904,87.544067 38.975819,87.559837 
	C38.975819,89.866905 38.975941,92.173981 38.975800,94.481049 
	C38.974987,107.969261 38.830116,121.459999 39.067310,134.944031 
	C39.132378,138.643127 37.969761,140.081390 34.386116,140.139755 
	C31.566214,140.185654 28.738081,140.875610 25.943008,140.726883 
	C24.835268,140.667938 23.806963,139.116028 22.747684,137.766479 
z"/>
<path fill="#D3342D" opacity="1.000000" stroke="none" 
	d="
M342.902710,132.736053 
	C348.835144,119.154083 354.491791,105.857567 360.406494,92.676849 
	C361.948853,89.239693 361.979248,86.233261 360.598083,82.780777 
	C355.057617,68.931419 349.707275,55.005997 343.914307,40.154076 
	C349.572540,40.154076 354.615082,39.991947 359.630035,40.291344 
	C360.628937,40.350979 361.902405,42.017059 362.402222,43.212830 
	C365.408936,50.406261 368.227051,57.678520 371.625641,66.225479 
	C375.009796,58.523190 378.215759,51.936474 380.778107,45.108231 
	C382.149628,41.453320 383.790771,39.641315 387.919952,40.049541 
	C391.837799,40.436874 395.823975,40.132862 400.642914,40.132862 
	C397.079926,48.521214 393.825317,56.252510 390.513397,63.959167 
	C387.825134,70.214569 385.302795,76.557968 382.257721,82.637375 
	C380.280457,86.585037 380.523560,89.992165 382.133423,93.968224 
	C388.053101,108.589005 393.677185,123.329529 399.396088,138.031372 
	C399.679382,138.759644 399.808472,139.547928 400.239319,141.178650 
	C394.431946,140.555191 389.164154,140.226868 384.014679,139.265152 
	C382.772614,139.033173 381.576141,136.846268 380.949493,135.316391 
	C377.629486,127.211014 374.497955,119.028419 370.799957,109.593979 
	C367.238373,117.808907 364.003448,124.765793 361.225189,131.900513 
	C359.921967,135.247299 358.347778,136.692001 354.618225,135.908539 
	C351.384674,135.229263 347.993042,135.333832 344.704224,134.862091 
	C343.973022,134.757233 343.379913,133.689240 342.902710,132.736053 
z"/>
<path fill="#D3342C" opacity="1.000000" stroke="none" 
	d="
M91.940002,133.725677 
	C90.947952,132.760483 89.919701,131.750061 89.917068,130.736969 
	C89.840263,101.102783 89.864731,71.468315 89.887497,41.833912 
	C89.887741,41.518795 90.079994,41.203827 90.305374,40.511929 
	C104.709282,40.511929 119.234238,40.511929 133.995071,40.511929 
	C133.995071,45.542797 133.995071,50.319744 133.995071,55.692337 
	C124.938721,55.692337 115.888206,55.692337 106.466599,55.692337 
	C106.466599,62.983398 106.466599,69.693665 106.466599,76.958672 
	C113.242485,76.958672 119.968781,76.958672 126.995819,76.958672 
	C126.995819,82.405319 126.995819,87.309395 126.995819,92.854279 
	C120.240990,92.854279 113.497368,92.854279 106.431931,92.854279 
	C106.431931,100.862877 106.431931,108.244400 106.431931,116.141510 
	C115.612457,115.712128 124.646530,115.289597 133.967316,114.853661 
	C133.967316,120.147369 133.967316,124.899620 133.967316,130.170105 
	C120.088966,131.341202 106.235413,132.510208 91.940002,133.725677 
z"/>
<path fill="#D3342C" opacity="1.000000" stroke="none" 
	d="
M234.881149,92.105011 
	C229.761887,92.104996 225.126587,92.104996 219.871796,92.104996 
	C219.871796,104.208374 219.871796,115.914810 219.871796,127.927528 
	C214.335526,127.927528 209.421783,127.927528 204.105927,127.927528 
	C204.105927,98.894905 204.105927,69.853775 204.105927,40.472046 
	C218.628616,40.472046 233.169144,40.472046 247.956177,40.472046 
	C247.956177,45.525738 247.956177,50.301926 247.956177,55.758194 
	C238.785095,55.758194 229.581116,55.758194 220.080017,55.758194 
	C220.080017,62.812859 220.080017,69.193848 220.080017,76.121216 
	C227.095825,76.121216 234.005386,76.121216 241.221375,76.121216 
	C241.221375,81.565926 241.221375,86.473686 241.221375,92.105034 
	C239.212143,92.105034 237.288620,92.105034 234.881149,92.105011 
z"/>
<path fill="#D3352D" opacity="1.000000" stroke="none" 
	d="
M176.895111,110.998734 
	C176.895096,116.981003 176.895096,122.463692 176.895096,128.582169 
	C171.679794,128.582169 166.653519,128.582169 161.130310,128.582169 
	C161.130310,104.805054 161.130310,80.758766 161.130310,56.200470 
	C155.439102,56.200470 150.201981,56.200470 144.569565,56.200470 
	C144.569565,50.804485 144.569565,45.901955 144.569565,40.560211 
	C160.601440,40.560211 176.775925,40.560211 193.304138,40.560211 
	C193.304138,45.452114 193.304138,50.347542 193.304138,55.781532 
	C188.040939,55.781532 182.809875,55.781532 176.895142,55.781532 
	C176.895142,74.370819 176.895142,92.434982 176.895111,110.998734 
z"/>
<path fill="#D3352D" opacity="1.000000" stroke="none" 
	d="
M274.233002,46.105656 
	C274.232849,68.735588 274.232849,90.879700 274.232849,113.699997 
	C281.619141,114.189720 288.851379,115.053932 296.078461,115.012688 
	C300.869781,114.985336 302.173126,116.690758 301.680145,121.118462 
	C301.336334,124.206169 301.613861,127.363045 301.613861,131.029114 
	C287.020050,130.404556 272.957367,129.802719 258.517822,129.184769 
	C258.517822,99.474091 258.517822,70.114922 258.517822,40.442097 
	C263.536774,40.442097 268.452454,40.442097 273.973969,40.442097 
	C274.058502,42.130955 274.145813,43.875393 274.233002,46.105656 
z"/>
<path fill="#D43B34" opacity="1.000000" stroke="none" 
	d="
M314.403076,51.037979 
	C314.403229,47.258278 314.403229,43.971836 314.403229,40.407501 
	C320.012817,40.407501 325.080688,40.407501 330.495300,40.407501 
	C330.495300,71.319756 330.495300,102.029739 330.495300,133.415085 
	C325.329285,133.031967 320.145477,132.647522 314.402924,132.221649 
	C314.402924,105.016571 314.402924,78.273903 314.403076,51.037979 
z"/>
</svg>