<svg version="1.1" id="Layer_1" xmlns="http://www.w3.org/2000/svg" xmlns:xlink="http://www.w3.org/1999/xlink" x="0px" y="0px"
	 width="100%" viewBox="0 0 431 224" enable-background="new 0 0 431 224" xml:space="preserve">
<path fill="#FEFEFE" opacity="1.000000" stroke="none" 
	d="
M253.000000,225.000000 
	C168.666687,225.000000 84.833366,225.000000 1.000034,225.000000 
	C1.000022,150.333359 1.000022,75.666725 1.000011,1.000064 
	C144.666611,1.000043 288.333221,1.000043 431.999878,1.000021 
	C431.999939,75.666603 431.999939,150.333206 431.999969,224.999908 
	C372.500000,225.000000 313.000000,225.000000 253.000000,225.000000 
M350.237854,189.611694 
	C350.237854,189.611694 350.248627,189.769974 350.193359,190.500702 
	C351.179016,190.952499 352.164673,191.404297 353.858063,191.812668 
	C354.984406,189.581085 356.110718,187.349503 357.919464,184.924011 
	C358.226135,181.611771 358.532837,178.299545 358.865906,174.177811 
	C359.031403,172.840088 359.196899,171.502365 360.007690,169.994431 
	C360.329468,167.995331 360.651245,165.996231 361.038849,163.232941 
	C361.192841,162.224030 361.346802,161.215118 362.111694,160.081329 
	C362.436798,158.723923 362.761902,157.366516 363.189178,155.398163 
	C363.288239,154.997482 363.387299,154.596786 364.123474,153.899002 
	C364.487396,152.423981 364.851349,150.948975 365.436188,148.645584 
	C367.549805,148.190582 369.663422,147.735580 372.468994,147.606476 
	C383.250122,144.571869 391.081635,137.807968 396.327515,128.114136 
	C397.812469,125.370209 398.220642,122.043579 399.271484,118.338814 
	C399.303253,117.678696 399.335022,117.018585 399.947449,115.966125 
	C399.748322,113.528709 399.549194,111.091293 399.380981,107.979805 
	C399.259827,107.320404 399.138702,106.661003 399.350616,105.547462 
	C398.347046,103.652039 397.511566,101.641548 396.307800,99.883194 
	C392.966156,95.001907 389.044006,93.671127 384.468109,97.303825 
	C379.115784,101.552895 374.713531,106.998695 369.553619,112.296638 
	C369.412567,112.602997 369.271484,112.909355 368.465424,113.245453 
	C366.991699,115.506203 365.517975,117.766953 363.738434,120.254318 
	C363.738434,120.254318 363.590515,120.605034 362.981903,120.951416 
	C362.082886,121.935555 361.183899,122.919685 360.284882,123.903824 
	C359.741577,123.634529 359.198273,123.365234 358.654968,123.095940 
	C360.104218,118.397255 361.553497,113.698563 363.264526,108.505089 
	C363.320862,108.137375 363.377167,107.769669 364.045441,107.104500 
	C365.693512,103.518684 367.524536,100.000435 368.887695,96.309395 
	C369.347717,95.063896 368.621552,93.380318 368.437500,91.896957 
	C366.920319,92.278320 364.621277,92.163429 364.013000,93.121712 
	C360.099243,99.287506 356.555542,105.688194 352.647125,112.503616 
	C352.616852,112.866669 352.586609,113.229729 352.007782,113.845016 
	C351.623138,115.234772 351.238495,116.624519 350.612640,118.624146 
	C350.581970,119.275970 350.551300,119.927795 350.017609,121.020081 
	C348.584839,124.240685 347.869324,127.425613 350.458649,130.973618 
	C350.555359,131.309052 350.652100,131.644485 350.447205,132.543900 
	C353.144165,136.532166 353.530609,140.570419 350.888977,144.786911 
	C350.551575,145.325424 350.849731,146.262085 350.633850,147.502426 
	C350.585693,147.854538 350.537567,148.206650 349.902649,148.927673 
	C348.824707,153.032516 347.746735,157.137360 346.471741,161.923203 
	C346.437439,162.630234 346.403137,163.337250 345.837952,164.578476 
	C345.440674,168.463272 345.043365,172.348053 344.408020,177.002014 
	C344.455566,178.599854 344.503113,180.197678 344.230347,182.448273 
	C345.569824,184.142273 346.909302,185.836273 348.294556,187.712585 
	C348.294556,187.712585 348.476349,187.760391 348.369019,188.382980 
	C348.999573,188.740204 349.630157,189.097443 350.237854,189.611694 
M175.858490,145.855469 
	C175.858490,145.855469 175.845779,145.731201 176.522110,145.729263 
	C177.329254,144.472870 178.136398,143.216476 179.004547,141.990738 
	C179.004547,141.990738 178.955231,141.942642 179.612717,141.701111 
	C187.100418,133.692993 186.374329,123.892654 185.558029,114.101295 
	C185.523758,113.690193 184.603989,113.352913 183.884369,112.276932 
	C183.776917,111.303467 183.669464,110.330009 183.889374,108.638931 
	C182.301773,105.393448 180.992722,101.972733 179.079697,98.931976 
	C169.352448,83.470383 155.321976,72.744171 139.442398,64.439964 
	C132.673782,60.900326 125.152702,58.799530 117.404770,55.791843 
	C115.928474,55.427864 114.452171,55.063885 112.479141,54.523785 
	C112.129654,54.499554 111.780167,54.475323 110.997490,53.906982 
	C107.969414,53.077354 104.951904,52.206615 101.911514,51.424850 
	C83.787369,46.764675 65.367378,46.460514 46.938553,48.501766 
	C43.348427,48.899426 38.341484,48.322258 36.081261,53.719166 
	C35.796055,54.201790 35.510853,54.684410 34.524364,55.288368 
	C33.896439,56.175667 33.290932,57.079884 32.636303,57.947021 
	C30.822271,60.349941 30.058229,63.141792 32.893246,64.868240 
	C36.086521,66.812866 39.920265,70.092903 43.542583,66.361015 
	C44.999302,64.860229 44.478168,61.439663 45.755352,58.799942 
	C50.501324,58.091091 55.247295,57.382240 60.827209,56.641434 
	C62.217785,56.651909 63.608364,56.662388 65.567207,57.220604 
	C71.488464,57.652695 77.409714,58.084785 83.887611,58.569191 
	C84.257843,58.612068 84.628075,58.654949 85.539215,59.215527 
	C88.276413,59.869774 91.012802,60.527428 93.750938,61.177727 
	C113.516312,65.871925 132.134094,73.080887 148.163330,85.975777 
	C151.828339,88.924126 155.516525,91.843658 159.695709,95.118240 
	C160.046555,95.610580 160.397400,96.102928 160.483871,97.218185 
	C161.123291,97.627869 161.762726,98.037560 162.810089,99.005371 
	C164.309631,101.332329 165.809174,103.659294 166.763153,106.245621 
	C168.127335,108.865028 169.491516,111.484436 170.973526,114.730484 
	C171.041183,115.150139 171.108826,115.569801 170.654144,116.585312 
	C170.848373,120.062202 171.042603,123.539085 171.137970,127.652763 
	C171.056259,128.074493 170.974533,128.496216 170.216049,129.074036 
	C170.087097,129.863174 169.958160,130.652298 169.460831,132.043030 
	C165.759262,135.878952 162.057678,139.714890 157.733261,143.275024 
	C157.174957,143.871674 156.616653,144.468323 155.595032,145.246521 
	C155.595032,145.246521 155.172531,145.509445 154.460678,145.322311 
	C151.496902,146.741669 148.533142,148.161026 145.038132,149.539093 
	C144.698486,149.632874 144.358841,149.726654 143.416519,149.476044 
	C132.704605,150.083389 121.992882,150.694199 111.280624,151.295486 
	C108.784019,151.435623 107.147705,150.679794 107.072449,147.757477 
	C106.837555,138.636627 106.520172,129.517548 106.172195,120.400154 
	C106.067955,117.668785 107.167198,116.280930 109.961830,116.557823 
	C117.550560,117.309708 125.232658,117.589638 132.695969,119.011101 
	C140.955673,120.584259 141.115128,121.886795 135.476456,128.107101 
	C135.323349,128.275970 135.451981,128.700256 135.289536,129.701035 
	C135.443100,129.882736 135.596664,130.064438 135.949371,130.886093 
	C138.217300,130.863419 140.485214,130.840744 143.465942,130.786148 
	C145.257751,129.425842 147.049561,128.065552 149.509537,126.765572 
	C154.005737,119.091255 152.107834,114.145164 142.741638,109.686874 
	C142.741638,109.686874 142.355713,109.611061 141.977310,109.045364 
	C133.676529,107.037094 125.465485,104.173256 117.046692,103.290321 
	C110.269264,102.579529 103.866241,103.356873 103.848991,93.928810 
	C103.848785,93.815651 103.620483,93.702919 103.559021,92.942764 
	C103.487663,92.301132 103.416306,91.659508 103.671936,90.434547 
	C103.020515,88.222923 102.788155,85.746895 101.604591,83.871017 
	C100.316811,81.829971 98.145630,80.346291 96.359604,78.619606 
	C95.228088,80.513237 93.382393,82.308907 93.106537,84.319916 
	C92.431786,89.238869 92.038895,94.286530 92.363930,99.227684 
	C92.699738,104.332405 89.868515,105.602684 85.879921,106.781708 
	C81.684303,108.021919 77.679131,109.906456 73.033813,111.550674 
	C72.689659,111.683975 72.345512,111.817276 71.566269,111.579697 
	C69.337555,113.018181 67.108841,114.456673 64.235146,116.077194 
	C60.635818,119.447548 54.988739,121.690369 57.322548,129.121582 
	C60.030998,132.046692 62.739449,134.971802 65.697853,138.224640 
	C65.697853,138.224640 66.047028,138.419083 66.047028,138.419083 
	C66.047028,138.419083 66.446404,138.415497 66.365562,138.444672 
	C66.365562,138.444672 66.312614,138.512375 66.418198,139.208298 
	C70.896957,142.514297 75.375717,145.820282 80.004616,149.739334 
	C80.765495,149.929230 81.526382,150.119110 82.723122,150.829758 
	C83.548683,151.174072 84.374237,151.518387 85.285332,152.480591 
	C85.956650,152.704254 86.627975,152.927902 87.858345,153.528595 
	C88.289795,153.649353 88.721252,153.770126 89.261467,154.508759 
	C89.944557,154.680161 90.627647,154.851578 91.832054,155.495346 
	C92.040901,155.601990 92.249741,155.708649 92.390167,156.575089 
	C93.249748,158.729004 94.109322,160.882935 95.054482,163.784012 
	C98.426056,169.710266 102.706978,170.531006 106.598541,165.782990 
	C108.056786,164.440155 109.515030,163.097321 111.721481,162.031464 
	C113.042084,162.132858 114.362686,162.234268 116.116035,162.907806 
	C122.852974,162.722092 129.589920,162.536362 137.143509,162.375854 
	C138.765259,162.208679 140.386993,162.041504 142.463120,162.313675 
	C144.391922,161.624222 146.320740,160.934753 148.957153,160.230591 
	C149.644470,160.073700 150.331802,159.916794 151.328384,160.221436 
	C152.604996,159.529160 153.881607,158.836868 155.839447,158.085510 
	C156.477737,157.856613 157.116028,157.627716 158.331299,157.707275 
	C158.935791,157.181488 159.540283,156.655701 160.840363,156.054886 
	C161.466537,155.770554 162.092712,155.486237 163.262085,155.517441 
	C163.786453,154.972031 164.310806,154.426620 165.501526,153.725067 
	C168.287094,151.697464 171.072647,149.669861 174.477982,147.755386 
	C174.896713,147.117996 175.315445,146.480591 175.858490,145.855469 
M340.051147,130.625107 
	C339.493256,130.656616 338.935394,130.688141 337.676117,130.367661 
	C336.450470,130.878204 335.224823,131.388733 333.145020,132.068832 
	C329.008362,132.799789 324.871704,133.530746 320.671997,134.272842 
	C320.239899,125.882576 321.431030,124.543694 328.689148,124.197586 
	C331.818542,124.048355 334.950012,123.764381 338.056732,123.359024 
	C342.686676,122.754913 343.750397,120.063774 341.905212,115.244514 
	C339.785248,114.664032 337.694122,113.782104 335.538361,113.575790 
	C332.524963,113.287415 329.463318,113.503075 326.388275,113.503075 
	C326.927277,107.649643 329.895844,106.270248 334.782471,106.614662 
	C337.911255,106.835182 341.126038,105.835968 344.872040,105.380013 
	C345.245697,105.316635 345.619324,105.253258 346.455536,105.607666 
	C351.472778,103.626694 352.103271,101.961258 348.558838,98.541229 
	C346.787292,97.189056 345.015747,95.836884 342.969971,93.902657 
	C340.065491,91.481110 337.379120,92.563530 333.926056,94.526428 
	C332.276947,94.593567 330.627838,94.660706 328.385376,94.251099 
	C325.183868,95.021400 321.982391,95.791695 318.087524,96.672989 
	C317.386993,96.717735 316.686493,96.762474 315.476624,96.315643 
	C312.429657,97.136116 309.382690,97.956596 306.335754,98.777069 
	C306.164612,99.421165 305.993469,100.065262 305.822296,100.709358 
	C307.592621,102.093620 309.362946,103.477875 311.750702,105.030029 
	C312.494171,105.367241 313.237610,105.704453 314.159271,106.873970 
	C313.409119,109.843903 312.658997,112.813828 311.417358,116.234055 
	C310.708923,117.083542 310.000519,117.933022 308.586517,118.978912 
	C308.583679,120.642929 308.580811,122.306938 308.384521,124.682411 
	C308.836578,125.123055 309.288635,125.563698 309.560699,126.714867 
	C309.081787,127.831993 308.602875,128.949112 307.419861,130.187897 
	C306.933807,131.453842 306.447784,132.719803 305.339386,133.532059 
	C305.000336,132.845169 304.661285,132.158264 304.252533,130.799133 
	C304.279083,129.899033 304.305634,128.998947 304.940643,127.537704 
	C304.746613,125.258621 304.552582,122.979530 304.338562,119.959930 
	C304.268616,118.975220 304.198669,117.990509 304.524353,116.459587 
	C302.598450,108.005936 299.834259,99.956131 293.208862,93.084732 
	C292.525330,92.329773 291.841766,91.574814 290.977417,90.122055 
	C289.268494,89.494034 287.559540,88.866013 285.850616,88.237999 
	C285.487823,90.043739 284.449066,92.041023 284.895782,93.617363 
	C285.998444,97.508675 287.782349,101.206947 289.345978,105.558044 
	C289.417053,105.936256 289.488129,106.314468 289.261261,107.406342 
	C289.964996,108.929291 290.668701,110.452232 291.430817,112.548996 
	C291.495911,112.927826 291.561035,113.306656 291.277832,114.435806 
	C291.986572,116.738937 292.695312,119.042068 293.457550,122.081139 
	C293.512726,123.698456 293.567902,125.315765 293.623047,126.933083 
	C292.767365,126.936806 291.911652,126.940529 291.029572,126.234917 
	C288.388855,122.224663 285.937408,118.071716 283.052734,114.245399 
	C280.315430,110.614540 277.124481,107.325653 274.008331,103.973686 
	C274.008331,103.973686 274.116974,103.866814 274.082916,103.156715 
	C269.514954,98.656708 265.813721,99.239029 263.881165,105.220139 
	C262.665741,108.981834 262.451172,113.066925 261.748901,117.697578 
	C261.728851,118.388939 261.708771,119.080292 261.065979,120.031364 
	C260.337738,121.905960 259.609528,123.780548 259.292603,124.596382 
	C255.984543,122.141739 253.025681,118.272087 249.507858,117.670387 
	C241.144409,116.239876 232.516464,116.355873 223.316864,115.757835 
	C222.634583,115.706017 221.952301,115.654190 220.915802,114.928024 
	C219.069565,113.112999 219.733475,112.327705 221.999451,111.773293 
	C224.161560,111.244278 226.230682,110.335205 229.166153,109.529579 
	C231.111847,109.438339 233.057526,109.347092 235.641861,109.691727 
	C239.194641,108.949699 242.747406,108.207680 246.978714,107.431816 
	C247.654755,107.367859 248.330780,107.303909 249.491501,107.663231 
	C251.310623,107.069633 253.129730,106.476036 255.655014,105.929260 
	C256.869781,104.307556 258.084564,102.685852 259.299316,101.064148 
	C257.871826,100.311195 256.444336,99.558243 254.398087,98.774719 
	C253.990219,98.715767 253.582336,98.656815 252.912933,97.928398 
	C247.252365,97.389603 241.599136,96.686867 235.925827,96.433151 
	C234.592377,96.373520 233.191147,97.830017 231.122635,98.739998 
	C230.409790,98.778740 229.696945,98.817490 228.481400,98.331474 
	C220.678207,98.969414 213.590332,101.648834 208.030380,107.112450 
	C205.497528,109.601440 202.694229,113.107925 205.149124,117.229927 
	C207.040634,120.405952 209.190506,123.858116 214.629974,122.154572 
	C215.048996,122.232468 215.468033,122.310371 215.903687,123.104935 
	C215.930466,124.054489 215.957260,125.004044 215.366379,126.209801 
	C213.947495,127.846291 212.528595,129.482773 210.407928,131.261993 
	C208.767792,133.669525 208.048004,135.994339 211.180008,138.565063 
	C211.356369,138.923904 211.532745,139.282745 211.407364,140.232178 
	C212.035477,140.688385 212.663589,141.144592 213.636841,142.147324 
	C215.019073,143.191299 216.401291,144.235275 217.901215,145.847504 
	C218.935043,146.284866 219.968857,146.722244 221.548492,147.334259 
	C221.924637,147.401047 222.300781,147.467850 223.091644,148.105316 
	C225.504044,148.529449 227.916443,148.953583 231.173935,149.465714 
	C234.003082,149.419357 236.832230,149.373001 240.415192,149.718689 
	C248.019852,148.902283 254.103622,145.416855 258.501648,139.064178 
	C259.766571,141.681091 260.511566,144.355728 262.140015,146.284409 
	C263.897980,148.366425 266.282501,151.234711 269.730957,147.040146 
	C269.961456,146.744049 270.191986,146.447937 271.116699,145.916214 
	C271.738800,143.784775 272.806305,141.672150 272.897369,139.518250 
	C273.146027,133.635483 272.982941,127.735298 272.982941,121.842010 
	C275.408264,123.967583 276.620544,126.593590 278.293396,128.883041 
	C281.342865,133.056427 284.665405,137.030258 287.961304,141.020309 
	C287.961304,141.020309 287.918427,141.121628 287.903961,141.764511 
	C288.557587,142.203278 289.211243,142.642044 290.370087,143.231049 
	C290.521912,143.319458 290.673767,143.407867 290.933289,144.196793 
	C293.070404,144.452057 295.706207,145.610733 297.236206,144.766159 
	C300.038361,143.219406 302.187469,140.489670 304.375122,138.469101 
	C306.236298,140.806763 308.238556,143.321671 310.605042,146.248169 
	C311.125916,146.752319 311.646790,147.256470 312.169312,148.498856 
	C317.191406,152.461121 320.351593,152.796921 324.497894,149.582794 
	C324.833740,149.552399 325.169556,149.522003 326.252594,149.849533 
	C329.954285,148.193466 333.805817,146.797470 337.301025,144.783127 
	C339.373199,143.588898 340.883118,141.419159 342.746185,139.740082 
	C342.746185,139.740082 342.709442,139.633240 343.375885,139.837708 
	C345.275269,138.114700 348.769836,136.676987 344.087769,133.319672 
	C343.793335,133.016800 343.498871,132.713928 343.133728,131.749023 
	C342.292267,131.395920 341.450775,131.042816 340.051147,130.625107 
M182.006516,63.979347 
	C182.006516,63.979347 181.909103,63.897625 181.259155,64.079742 
	C177.465836,68.395691 174.025620,73.003410 175.685593,79.149010 
	C176.778931,83.196808 178.517441,87.111862 180.357498,90.896515 
	C181.120895,92.466652 183.112289,94.746628 184.173004,94.562263 
	C185.807465,94.278160 187.121506,92.150566 189.450165,90.697426 
	C190.332169,90.640297 191.214172,90.583160 192.553741,91.041580 
	C194.548843,90.853683 196.543930,90.665779 199.235596,90.558449 
	C200.151016,90.410652 201.066452,90.262856 202.493469,90.417740 
	C212.272141,86.806694 220.034821,80.670868 225.183289,71.581123 
	C228.728668,65.321640 226.413559,59.805027 219.790634,57.338879 
	C217.691925,56.557384 215.804352,55.218647 213.719681,54.386669 
	C211.829788,53.632423 209.803131,53.220844 207.060410,52.373936 
	C205.426285,52.486286 203.792175,52.598633 201.443161,52.359474 
	C193.721344,54.171005 186.790070,57.319626 182.006516,63.979347 
M192.259613,100.959587 
	C191.237289,103.489388 189.412323,105.994209 189.332657,108.553360 
	C189.001129,119.202095 188.935715,129.877731 189.368042,140.519333 
	C189.485168,143.402435 191.690460,146.200684 193.468033,149.308319 
	C193.949020,149.938232 194.430023,150.568161 195.059769,151.930344 
	C201.508682,154.317825 205.283569,151.863586 204.890701,145.232864 
	C204.334595,135.847229 203.742355,126.449821 202.671753,117.114067 
	C202.080963,111.962227 201.002090,106.727036 199.158676,101.905884 
	C197.874893,98.548424 195.533691,98.622124 193.000000,101.000000 
	C193.000000,101.000000 192.993866,100.995094 192.259613,100.959587 
z"/>
<path fill="#050505" opacity="1.000000" stroke="none" 
	d="
M92.458572,155.815292 
	C92.249741,155.708649 92.040901,155.601990 91.544144,154.958618 
	C90.555061,154.244873 89.853882,154.067886 89.152702,153.890900 
	C88.721252,153.770126 88.289795,153.649353 87.552826,153.038818 
	C86.564804,152.320251 85.882294,152.091476 85.199791,151.862701 
	C84.374237,151.518387 83.548683,151.174072 82.449562,150.251343 
	C81.402161,149.490723 80.628311,149.308502 79.854469,149.126282 
	C75.375717,145.820282 70.896957,142.514297 66.785446,138.654633 
	C67.828011,137.504089 68.503334,136.907211 69.485031,136.440643 
	C70.155075,136.822433 70.518745,137.073914 70.866425,137.682831 
	C73.094490,139.175980 75.338554,140.311722 77.753571,141.473907 
	C77.924515,141.500351 78.125549,141.781921 78.076462,142.087769 
	C78.683594,142.603394 79.339806,142.813187 80.289696,143.031219 
	C81.106598,143.280441 81.629829,143.521423 82.116119,144.068054 
	C82.717751,144.591888 83.356331,144.810089 84.319771,145.048798 
	C85.048439,145.223038 85.452240,145.376770 85.965881,145.862946 
	C87.262497,146.566452 88.449287,146.937500 89.866661,147.281616 
	C90.550575,147.339005 91.003914,147.423325 91.868729,147.632996 
	C92.828667,146.552216 93.829483,145.354446 93.852051,144.138535 
	C93.996567,136.352188 94.086868,128.556091 93.807442,120.777122 
	C93.742096,118.957985 92.383583,115.861534 91.268974,115.694427 
	C89.282028,115.396545 87.027420,116.884018 84.508102,117.745682 
	C83.080849,117.873032 82.030235,117.879601 80.733887,117.610992 
	C77.957832,118.117615 75.427521,118.899414 72.592407,119.799911 
	C71.854088,119.921638 71.420570,119.924667 70.761902,119.659134 
	C66.752205,119.196800 63.522034,120.023010 62.008553,124.012054 
	C62.000973,124.002449 62.022369,124.017006 61.636673,124.023880 
	C59.984295,125.486610 58.717621,126.942451 57.450947,128.398300 
	C54.988739,121.690369 60.635818,119.447548 64.924469,116.104507 
	C67.742989,114.738083 69.872169,113.344337 72.001358,111.950584 
	C72.345512,111.817276 72.689659,111.683975 73.687241,111.706459 
	C79.532539,110.460548 84.837578,109.361641 89.852745,107.487183 
	C91.529091,106.860626 93.232872,104.391174 93.571228,102.519554 
	C94.183289,99.133934 93.455147,95.524208 93.883682,92.082397 
	C94.368156,88.191261 95.510010,84.381981 96.366005,80.537102 
	C96.876678,80.550423 97.387344,80.563736 97.898018,80.577057 
	C98.848785,82.234543 99.853775,83.863800 100.735466,85.557251 
	C101.666542,87.345566 102.480072,89.195091 103.344948,91.017876 
	C103.416306,91.659508 103.487663,92.301132 103.337616,93.704819 
	C103.095406,95.296547 103.045135,96.126701 103.058395,96.955833 
	C103.181999,104.684891 103.492332,104.547325 111.391655,104.916824 
	C118.265495,105.238358 125.100464,106.548882 131.931351,107.565224 
	C135.430145,108.085793 138.882416,108.919090 142.355713,109.611061 
	C142.355713,109.611061 142.741638,109.686874 142.892700,110.156883 
	C148.696426,114.644920 151.424271,119.717590 148.841370,126.705238 
	C147.049561,128.065552 145.257751,129.425842 142.767487,130.613129 
	C139.962753,130.375458 137.856491,130.310791 135.750214,130.246124 
	C135.596664,130.064438 135.443100,129.882736 135.747589,129.350250 
	C136.749451,128.641113 137.328888,128.326538 137.831650,127.917679 
	C143.679062,123.162216 143.717209,121.137604 136.878403,118.455818 
	C127.327721,114.710602 117.142670,114.628189 107.026482,115.268723 
	C106.273277,115.316414 105.071663,117.406281 105.056824,118.559380 
	C104.928352,128.536545 104.898178,138.520416 105.201538,148.491257 
	C105.242744,149.845657 107.063599,151.951263 108.441200,152.332230 
	C119.445763,155.375549 130.481216,153.877289 141.453506,151.860199 
	C142.401688,151.685883 143.168259,150.523712 144.019196,149.820419 
	C144.358841,149.726654 144.698486,149.632874 145.683258,149.741394 
	C149.276443,148.465591 152.224487,146.987518 155.172531,145.509430 
	C155.172531,145.509445 155.595032,145.246521 156.139267,145.277222 
	C157.241028,144.722198 157.798569,144.136505 158.356110,143.550812 
	C162.057678,139.714890 165.759262,135.878952 169.978043,131.684998 
	C170.627777,130.523956 170.760300,129.720947 170.892822,128.917938 
	C170.974533,128.496216 171.056259,128.074493 171.432526,127.345871 
	C171.971878,126.806671 172.132538,126.526169 172.541656,126.038567 
	C172.683624,123.165123 172.492981,120.450577 172.247559,117.455841 
	C171.854019,116.780243 171.515259,116.384850 171.176483,115.989456 
	C171.108826,115.569801 171.041183,115.150139 171.093353,114.096672 
	C171.176025,112.976837 171.138855,112.490822 171.277405,111.817230 
	C171.000397,111.052910 170.547653,110.476143 169.924744,109.636444 
	C168.939285,108.244423 168.123993,107.115341 167.308716,105.986252 
	C165.809174,103.659294 164.309631,101.332329 162.675003,98.435112 
	C161.942688,97.441658 161.345474,97.018463 160.748245,96.595268 
	C160.397400,96.102928 160.046555,95.610580 159.410980,94.601723 
	C158.052490,92.842491 157.077026,91.495872 155.890106,90.372757 
	C139.864807,75.208923 120.439041,66.373878 99.497910,60.578461 
	C94.847397,59.291447 89.840897,59.290779 84.998306,58.697830 
	C84.628075,58.654949 84.257843,58.612068 83.458252,58.215908 
	C77.018913,57.466038 71.008926,57.069454 64.998940,56.672867 
	C63.608364,56.662388 62.217785,56.651909 60.067070,56.439159 
	C57.526367,56.213200 55.707630,55.945599 53.973232,56.216976 
	C50.440166,56.769787 46.952572,57.613220 43.057228,58.361294 
	C34.938019,61.346287 45.177204,61.878212 42.162956,65.094925 
	C40.444092,64.822701 37.141335,65.063095 34.942577,63.620644 
	C33.885960,62.927475 34.904701,59.055897 35.006317,56.624634 
	C35.026714,56.136562 35.149872,55.652786 35.225647,55.167030 
	C35.510853,54.684410 35.796055,54.201790 36.538139,53.436653 
	C42.541664,51.764797 48.026619,49.575489 53.646992,49.142044 
	C68.200844,48.019634 82.676582,49.389332 97.012482,52.237759 
	C101.777046,53.184441 106.622307,53.724911 111.430679,54.451088 
	C111.780167,54.475323 112.129654,54.499554 112.877090,54.957901 
	C114.874512,55.881927 116.473976,56.371834 118.437958,56.927132 
	C126.377167,60.495106 134.186157,63.572163 141.478592,67.587379 
	C157.488907,76.402657 171.196640,87.845184 180.263504,104.128738 
	C181.264374,105.926254 182.457855,107.616531 183.562012,109.356537 
	C183.669464,110.330009 183.776917,111.303467 183.669785,112.840515 
	C183.357910,118.963943 183.760239,124.593369 182.998703,130.060684 
	C182.431870,134.130112 180.357941,137.989639 178.955231,141.942642 
	C178.955231,141.942642 179.004547,141.990738 178.647400,142.003021 
	C177.475433,143.253937 176.660614,144.492569 175.845779,145.731201 
	C175.845779,145.731201 175.858490,145.855469 175.505646,145.852478 
	C174.721283,146.447067 174.289749,147.044662 173.858215,147.642258 
	C171.072647,149.669861 168.287094,151.697464 164.882355,153.685272 
	C163.748413,154.164291 163.233643,154.683105 162.718887,155.201904 
	C162.092712,155.486237 161.466537,155.770554 160.189346,155.938171 
	C158.943665,156.347244 158.348984,156.873016 157.754318,157.398804 
	C157.116028,157.627716 156.477737,157.856613 155.167282,157.953979 
	C153.336456,158.468262 152.177795,159.114075 151.019119,159.759888 
	C150.331802,159.916794 149.644470,160.073700 148.230316,160.058701 
	C145.671906,160.549301 143.840332,161.211807 142.008743,161.874329 
	C140.386993,162.041504 138.765259,162.208679 136.280930,162.160690 
	C128.839996,162.075577 122.261642,162.205612 115.683289,162.335663 
	C114.362686,162.234268 113.042084,162.132858 111.234344,161.541473 
	C106.011261,159.456131 105.628563,159.836273 105.902428,165.863770 
	C102.706978,170.531006 98.426056,169.710266 95.163078,163.040146 
	C94.333977,160.135956 93.396271,157.975616 92.458572,155.815292 
z"/>
<path fill="#0D0D0D" opacity="1.000000" stroke="none" 
	d="
M369.130432,113.215698 
	C369.271484,112.909355 369.412567,112.602997 370.071320,112.116539 
	C374.600128,107.989227 378.396606,103.789246 382.674774,100.156593 
	C388.468872,95.236748 392.754425,96.208649 396.420654,102.628220 
	C397.117798,103.848915 398.143463,104.881966 399.017548,106.001602 
	C399.138702,106.661003 399.259827,107.320404 399.167236,108.768311 
	C399.091217,111.824028 399.228973,114.091248 399.366760,116.358467 
	C399.335022,117.018585 399.303253,117.678696 398.907867,118.872559 
	C398.077728,120.286247 397.471710,121.120468 397.166107,122.053139 
	C393.773438,132.406967 386.637726,139.402084 377.244873,144.393188 
	C375.424744,145.360336 373.599792,146.318359 371.777039,147.280579 
	C369.663422,147.735580 367.549805,148.190582 365.007935,149.196671 
	C364.215210,151.230530 363.850800,152.713318 363.486389,154.196106 
	C363.387299,154.596786 363.288239,154.997482 362.791809,155.817047 
	C362.096558,157.559357 361.798676,158.882782 361.500793,160.206207 
	C361.346802,161.215118 361.192841,162.224030 360.654785,163.754120 
	C359.967926,166.238403 359.665131,168.201523 359.362366,170.164642 
	C359.196899,171.502365 359.031403,172.840088 358.523315,174.779785 
	C357.866150,178.627151 357.551575,181.872543 357.237030,185.117920 
	C356.110718,187.349503 354.984406,189.581085 353.411499,191.520203 
	C352.059509,190.741806 351.154053,190.255890 350.248627,189.769974 
	C350.248627,189.769974 350.237854,189.611694 350.250793,189.248138 
	C349.667908,188.509857 349.072144,188.135117 348.476349,187.760391 
	C348.476349,187.760391 348.294556,187.712585 348.264954,187.288742 
	C347.007141,185.175110 345.778931,183.485306 344.550690,181.795517 
	C344.503113,180.197678 344.455566,178.599854 344.848267,176.466690 
	C345.648651,171.969009 346.008759,168.006638 346.368835,164.044281 
	C346.403137,163.337250 346.437439,162.630234 346.893982,161.456787 
	C348.373962,156.846512 349.431702,152.702637 350.489410,148.558762 
	C350.537567,148.206650 350.585693,147.854538 351.093262,147.133881 
	C355.933411,139.069092 355.800720,136.628342 350.748840,131.979935 
	C350.652100,131.644485 350.555359,131.309052 350.668579,130.246368 
	C350.759186,126.539276 350.639923,123.559448 350.520630,120.579620 
	C350.551300,119.927795 350.581970,119.275970 351.097900,118.187904 
	C351.907532,116.365372 352.231934,114.979073 352.556335,113.592781 
	C352.586609,113.229729 352.616852,112.866669 353.112915,112.153625 
	C357.738037,105.548218 360.138000,98.008667 367.023132,93.556206 
	C366.991394,95.742584 366.551666,97.761131 365.956909,99.732925 
	C365.179962,102.308624 364.280365,104.847336 363.433502,107.401955 
	C363.377167,107.769669 363.320862,108.137375 362.773254,108.799538 
	C356.842590,117.735588 356.298035,122.151283 360.842987,127.279900 
	C361.866547,124.793243 362.728516,122.699135 363.590515,120.605026 
	C363.590515,120.605034 363.738434,120.254318 364.237061,120.152908 
	C366.200623,117.772896 367.665527,115.494301 369.130432,113.215698 
M383.757568,112.662376 
	C382.410065,114.704575 381.062561,116.746780 379.023743,118.853745 
	C378.129272,120.652763 377.234833,122.451782 376.162537,124.784386 
	C376.044861,125.140335 375.927216,125.496284 375.114838,126.011070 
	C374.438934,127.120972 373.506805,128.155121 373.150757,129.359573 
	C372.685333,130.933884 372.675568,132.642899 372.469788,134.293976 
	C374.310638,133.815201 376.151459,133.336411 378.658783,132.673599 
	C382.656494,129.231918 386.654236,125.790222 391.297791,122.079124 
	C392.100494,117.359184 393.518524,112.635742 393.491669,107.920525 
	C393.473480,104.726036 391.505096,104.483101 388.381012,107.166405 
	C387.820007,107.704765 387.258972,108.243126 386.039337,108.909706 
	C385.400360,109.975372 384.761353,111.041039 383.757568,112.662376 
z"/>
<path fill="#0B0B0B" opacity="1.000000" stroke="none" 
	d="
M217.783524,145.279251 
	C216.401291,144.235275 215.019073,143.191299 213.532959,141.582474 
	C212.855774,140.558945 212.282440,140.100266 211.709106,139.641586 
	C211.532745,139.282745 211.356369,138.923904 211.227493,137.860855 
	C211.219894,135.144180 211.164795,133.131729 211.109695,131.119263 
	C212.528595,129.482773 213.947495,127.846291 216.047363,126.257858 
	C217.817596,126.190331 218.906830,126.074753 220.198853,126.224670 
	C221.603500,126.294029 222.805374,126.097885 224.463409,125.914726 
	C228.946335,126.314987 232.973114,126.702271 237.088959,127.462646 
	C238.066055,128.081528 238.954071,128.327301 240.209091,128.488724 
	C241.410156,129.163239 242.244217,129.922104 243.078278,130.680969 
	C242.351318,131.416443 241.743622,132.393051 240.867279,132.826492 
	C239.764618,133.371857 238.442291,133.473083 237.029297,133.365326 
	C235.159531,133.245895 233.475189,133.527084 231.483765,133.864471 
	C229.773132,133.651917 228.369583,133.383179 226.681641,132.948578 
	C225.990051,132.621429 225.582825,132.460129 225.081848,131.950928 
	C220.382950,128.805389 216.498825,129.280243 215.182190,133.207047 
	C215.813492,134.918274 216.515533,136.215637 217.400635,137.907822 
	C222.383102,138.493973 227.182495,138.685303 232.099564,139.115295 
	C232.862808,139.067535 233.508392,138.781113 234.513733,138.323685 
	C238.172195,137.102051 241.663559,136.428162 244.704254,134.873047 
	C246.859924,133.770554 248.406677,131.477448 250.225220,129.715790 
	C248.113342,127.851753 246.056686,125.917953 243.851349,124.171944 
	C243.289093,123.726791 242.255356,123.877121 241.233765,123.456039 
	C239.655640,122.983810 238.282013,122.809410 236.472733,122.472641 
	C229.320404,122.336273 222.603729,122.362274 215.887054,122.388275 
	C215.468033,122.310371 215.048996,122.232468 214.114868,121.862755 
	C207.061584,118.424080 204.595398,113.946228 207.968323,109.977837 
	C210.428619,107.083214 214.065659,104.984474 217.522705,103.197632 
	C221.127975,101.334175 225.146347,100.269913 228.984100,98.856232 
	C229.696945,98.817490 230.409790,98.778740 231.925720,98.832901 
	C239.544022,98.816498 246.359253,98.707184 253.174469,98.597862 
	C253.582336,98.656815 253.990219,98.715767 254.881500,99.096237 
	C258.276001,101.478302 257.223480,103.255417 254.591370,104.931107 
	C252.477753,105.690384 250.742279,106.465164 249.006821,107.239944 
	C248.330780,107.303909 247.654755,107.367859 246.210114,107.263298 
	C241.962067,107.815132 238.482651,108.535484 235.003220,109.255844 
	C233.057526,109.347092 231.111847,109.438339 228.355438,109.370049 
	C225.088303,109.785538 222.539185,110.124306 220.214951,111.036240 
	C219.069962,111.485466 218.340820,112.994537 217.423523,114.024033 
	C218.705688,114.550148 219.987854,115.076256 221.270020,115.602371 
	C221.952301,115.654190 222.634583,115.706017 223.892136,116.108185 
	C230.728271,116.955574 236.984192,117.529884 243.251282,117.929382 
	C250.496674,118.391251 256.190857,122.067711 257.152649,127.095932 
	C258.850525,135.972565 256.386993,141.585052 248.910736,145.350616 
	C245.919037,146.857468 242.749802,148.011841 239.661377,149.326645 
	C236.832230,149.373001 234.003082,149.419357 230.561432,149.128952 
	C227.524933,148.373001 225.100922,147.953812 222.676926,147.534637 
	C222.300781,147.467850 221.924637,147.401047 221.162247,146.915009 
	C219.778503,146.090256 218.781021,145.684753 217.783524,145.279251 
z"/>
<path fill="#090909" opacity="1.000000" stroke="none" 
	d="
M312.167664,147.760605 
	C311.646790,147.256470 311.125916,146.752319 310.438324,145.656586 
	C309.242462,141.379227 308.213318,137.693466 307.435913,133.750397 
	C307.833038,132.350784 307.978516,131.208496 308.123962,130.066223 
	C308.602875,128.949112 309.081787,127.831993 309.909241,126.224442 
	C310.226288,125.174377 310.194763,124.614738 310.285217,123.748497 
	C310.035522,121.888771 309.663818,120.335648 309.292114,118.782509 
	C310.000519,117.933022 310.708923,117.083542 312.029297,116.079453 
	C313.816650,112.960754 315.005890,110.001572 316.073059,106.999016 
	C316.095551,106.935738 314.709839,106.371956 313.981079,106.041664 
	C313.237610,105.704453 312.494171,105.367241 311.286560,104.609665 
	C308.454620,101.633484 306.950287,99.401001 312.238129,98.690224 
	C313.548096,98.514137 314.739868,97.458534 315.985962,96.807213 
	C316.686493,96.762474 317.386993,96.717735 318.850220,96.792709 
	C322.734863,96.184227 325.856781,95.456032 328.978729,94.727844 
	C330.627838,94.660706 332.276947,94.593567 334.773010,94.664993 
	C338.161377,94.697281 340.702789,94.590996 343.244202,94.484711 
	C345.015747,95.836884 346.787292,97.189056 348.698547,99.200485 
	C347.889801,101.636459 346.941376,103.413170 345.992981,105.189880 
	C345.619324,105.253258 345.245697,105.316635 344.136871,105.176392 
	C340.092407,104.958488 336.783112,104.930885 333.473816,104.932640 
	C326.219666,104.936493 323.847595,108.146637 325.748383,116.062126 
	C330.703339,116.062126 335.794464,116.062126 340.998352,116.474579 
	C341.951782,120.445854 340.141205,121.753304 336.901276,121.826004 
	C334.092499,121.889038 331.282135,121.897018 328.474548,121.991539 
	C321.794647,122.216454 318.755188,125.142075 318.240112,131.720001 
	C318.009583,134.664200 319.249786,136.343597 322.243896,135.749268 
	C326.256012,134.952866 330.192261,133.773926 334.511078,132.733582 
	C335.785034,132.576340 336.708984,132.444748 338.081787,132.495285 
	C339.466614,132.541138 340.402618,132.404861 341.642822,132.391479 
	C342.366150,132.479919 342.785309,132.445480 343.204437,132.411041 
	C343.498871,132.713928 343.793335,133.016800 344.139771,133.955566 
	C343.697632,136.272064 343.203522,137.952652 342.709442,139.633240 
	C342.709442,139.633240 342.746185,139.740082 342.348206,139.727600 
	C336.468597,142.973969 330.987000,146.232803 325.505402,149.491623 
	C325.169556,149.522003 324.833740,149.552399 323.900482,149.506638 
	C319.591278,148.873856 315.879456,148.317230 312.167664,147.760605 
z"/>
<path fill="#0B0B0B" opacity="1.000000" stroke="none" 
	d="
M291.158234,90.819862 
	C291.841766,91.574814 292.525330,92.329773 293.227783,93.699158 
	C295.654114,99.090195 298.112122,103.842232 300.449310,108.652962 
	C301.777893,111.387627 302.908783,114.218338 304.128693,117.005798 
	C304.198669,117.990509 304.268616,118.975220 304.150024,120.720123 
	C304.085083,123.686485 304.208618,125.892670 304.332184,128.098846 
	C304.305634,128.998947 304.279083,129.899033 304.052246,131.381378 
	C301.570404,138.135284 299.819977,144.906891 290.825592,143.496277 
	C290.673767,143.407867 290.521912,143.319458 290.088745,142.838806 
	C289.177734,142.004913 288.548065,141.563263 287.918427,141.121628 
	C287.918427,141.121628 287.961304,141.020309 287.899780,140.704132 
	C283.107422,132.923157 278.376587,125.458351 273.645752,117.993538 
	C273.167389,118.021782 272.688995,118.050026 272.210632,118.078270 
	C271.603912,120.330833 270.544250,122.569473 270.474548,124.838547 
	C270.256378,131.936798 270.411804,139.046555 270.422485,146.151840 
	C270.191986,146.447937 269.961456,146.744049 269.086517,147.065887 
	C266.423676,146.023941 263.387390,145.431061 262.617615,143.780914 
	C261.360687,141.086395 261.292572,137.707123 261.244415,134.608658 
	C261.167542,129.666473 261.518616,124.717659 261.688721,119.771652 
	C261.708771,119.080292 261.728851,118.388939 262.053467,117.113617 
	C263.005585,114.177025 263.756439,111.847191 264.281464,109.467529 
	C265.905396,102.106995 267.554199,101.139122 274.116974,103.866814 
	C274.116974,103.866814 274.008331,103.973686 274.014343,104.280136 
	C277.575317,109.481476 281.072693,114.419701 284.708160,119.254059 
	C286.703888,121.907867 288.932404,124.386589 291.055969,126.944252 
	C291.911652,126.940529 292.767365,126.936806 293.623047,126.933083 
	C293.567902,125.315765 293.512726,123.698456 293.624878,121.346558 
	C293.070221,118.303139 292.348206,115.994308 291.626160,113.685478 
	C291.561035,113.306656 291.495911,112.927826 291.596344,112.009201 
	C291.027679,109.877167 290.293457,108.284912 289.559204,106.692673 
	C289.488129,106.314468 289.417053,105.936256 289.529572,104.996765 
	C288.425140,99.714539 287.137115,94.993607 285.675232,89.635437 
	C288.097595,90.158707 289.627899,90.489281 291.158234,90.819862 
z"/>
<path fill="#0E0E0E" opacity="1.000000" stroke="none" 
	d="
M202.158051,52.710979 
	C203.792175,52.598633 205.426285,52.486286 207.569321,52.815685 
	C211.635468,55.190456 215.003815,57.728138 218.794952,58.912354 
	C224.248428,60.615814 226.958252,64.761063 223.984467,69.767883 
	C221.410690,74.101219 218.087769,78.184151 214.374023,81.590714 
	C210.715347,84.946777 206.149628,87.313980 201.981873,90.115059 
	C201.066452,90.262856 200.151016,90.410652 198.496338,90.330414 
	C195.870117,90.243599 193.983154,90.384811 192.096176,90.526031 
	C191.214172,90.583160 190.332169,90.640297 188.691193,90.782532 
	C186.787018,91.799049 185.641815,92.730453 183.925552,94.126328 
	C181.831070,89.171410 179.767365,84.607857 177.969666,79.941826 
	C176.357590,75.757553 177.347488,71.874092 179.832794,68.225822 
	C180.723465,66.918365 181.228210,65.347992 181.909103,63.897621 
	C181.909103,63.897625 182.006516,63.979347 182.307175,63.970245 
	C186.654785,61.243740 190.612320,58.377693 194.784378,55.868271 
	C197.054123,54.503052 199.688263,53.743633 202.158051,52.710979 
M183.001999,75.999336 
	C183.001999,75.999336 183.044952,75.939774 183.008804,76.646210 
	C184.593796,78.548088 185.567078,78.318069 186.086411,75.183441 
	C190.478790,70.693634 194.871170,66.203827 199.476639,61.496201 
	C192.185425,60.666363 185.849991,65.507156 182.067627,73.988838 
	C182.398590,74.644188 182.729553,75.299538 183.001999,75.999336 
M205.069763,67.489769 
	C200.605209,71.766747 196.140671,76.043716 191.627747,80.367027 
	C192.869858,81.669319 193.137283,82.189232 193.541306,82.337898 
	C201.527527,85.276497 217.241211,77.068123 219.287567,68.920975 
	C220.159500,65.449623 218.141479,62.532978 214.651276,63.228031 
	C211.535187,63.848579 208.680603,65.782417 205.069763,67.489769 
z"/>
<path fill="#121212" opacity="1.000000" stroke="none" 
	d="
M194.911011,151.198074 
	C194.430023,150.568161 193.949020,149.938232 193.224762,148.768188 
	C189.685135,132.482880 189.602600,116.738533 192.993866,100.995094 
	C192.993866,100.995094 193.000000,101.000000 193.391678,101.079224 
	C200.533386,100.868866 199.747116,106.665474 200.169266,110.238258 
	C201.485901,121.381752 202.032532,132.619965 202.742462,143.830017 
	C203.190567,150.905701 202.055481,151.875610 194.911011,151.198074 
z"/>
<path fill="#525252" opacity="1.000000" stroke="none" 
	d="
M143.717865,149.648224 
	C143.168259,150.523712 142.401688,151.685883 141.453506,151.860199 
	C130.481216,153.877289 119.445763,155.375549 108.441200,152.332230 
	C107.063599,151.951263 105.242744,149.845657 105.201538,148.491257 
	C104.898178,138.520416 104.928352,128.536545 105.056824,118.559380 
	C105.071663,117.406281 106.273277,115.316414 107.026482,115.268723 
	C117.142670,114.628189 127.327721,114.710602 136.878403,118.455818 
	C143.717209,121.137604 143.679062,123.162216 137.831650,127.917679 
	C137.328888,128.326538 136.749451,128.641113 135.827423,129.002457 
	C135.451981,128.700256 135.323349,128.275970 135.476456,128.107101 
	C141.115128,121.886795 140.955673,120.584259 132.695969,119.011101 
	C125.232658,117.589638 117.550560,117.309708 109.961830,116.557823 
	C107.167198,116.280930 106.067955,117.668785 106.172195,120.400154 
	C106.520172,129.517548 106.837555,138.636627 107.072449,147.757477 
	C107.147705,150.679794 108.784019,151.435623 111.280624,151.295486 
	C121.992882,150.694199 132.704605,150.083389 143.717865,149.648224 
z"/>
<path fill="#C4C4C4" opacity="1.000000" stroke="none" 
	d="
M241.438248,123.753860 
	C242.255356,123.877121 243.289093,123.726791 243.851349,124.171944 
	C246.056686,125.917953 248.113342,127.851753 250.225220,129.715790 
	C248.406677,131.477448 246.859924,133.770554 244.704254,134.873047 
	C241.663559,136.428162 238.172195,137.102051 234.242172,138.157471 
	C233.067856,138.400375 232.524887,138.638504 231.981903,138.876617 
	C227.182495,138.685303 222.383102,138.493973 217.905426,137.760223 
	C222.011322,137.217819 225.795486,137.217819 230.437500,137.217819 
	C228.686264,135.147812 227.826157,134.131119 226.966034,133.114441 
	C228.369583,133.383179 229.773132,133.651917 231.784515,134.049469 
	C233.999817,134.040848 235.607269,133.903397 237.214737,133.765945 
	C238.442291,133.473083 239.764618,133.371857 240.867279,132.826492 
	C241.743622,132.393051 242.351318,131.416443 243.078278,130.680969 
	C242.244217,129.922104 241.410156,129.163239 240.036346,128.190231 
	C238.664368,127.680580 237.832123,127.385063 236.999893,127.089546 
	C232.973114,126.702271 228.946335,126.314987 224.273514,125.635803 
	C222.417007,125.549004 221.206543,125.754097 219.996078,125.959183 
	C218.906830,126.074753 217.817596,126.190331 216.356201,126.129753 
	C215.957260,125.004044 215.930466,124.054489 215.895370,122.746597 
	C222.603729,122.362274 229.320404,122.336273 236.630951,122.789146 
	C238.629303,123.429970 240.033768,123.591919 241.438248,123.753860 
z"/>
<path fill="#7F7F7F" opacity="1.000000" stroke="none" 
	d="
M261.377350,119.901505 
	C261.518616,124.717659 261.167542,129.666473 261.244415,134.608658 
	C261.292572,137.707123 261.360687,141.086395 262.617615,143.780914 
	C263.387390,145.431061 266.423676,146.023941 268.849243,147.218094 
	C266.282501,151.234711 263.897980,148.366425 262.140015,146.284409 
	C260.511566,144.355728 259.766571,141.681091 258.501648,139.064178 
	C254.103622,145.416855 248.019852,148.902283 240.038284,149.522675 
	C242.749802,148.011841 245.919037,146.857468 248.910736,145.350616 
	C256.386993,141.585052 258.850525,135.972565 257.152649,127.095932 
	C256.190857,122.067711 250.496674,118.391251 243.251282,117.929382 
	C236.984192,117.529884 230.728271,116.955574 224.231384,116.152771 
	C232.516464,116.355873 241.144409,116.239876 249.507858,117.670387 
	C253.025681,118.272087 255.984543,122.141739 259.292603,124.596382 
	C259.609528,123.780548 260.337738,121.905960 261.377350,119.901505 
z"/>
<path fill="#878787" opacity="1.000000" stroke="none" 
	d="
M85.268761,58.956680 
	C89.840897,59.290779 94.847397,59.291447 99.497910,60.578461 
	C120.439041,66.373878 139.864807,75.208923 155.890106,90.372757 
	C157.077026,91.495872 158.052490,92.842491 159.160156,94.430832 
	C155.516525,91.843658 151.828339,88.924126 148.163330,85.975777 
	C132.134094,73.080887 113.516312,65.871925 93.750938,61.177727 
	C91.012802,60.527428 88.276413,59.869774 85.268761,58.956680 
z"/>
<path fill="#979797" opacity="1.000000" stroke="none" 
	d="
M183.725693,108.997734 
	C182.457855,107.616531 181.264374,105.926254 180.263504,104.128738 
	C171.196640,87.845184 157.488907,76.402657 141.478592,67.587379 
	C134.186157,63.572163 126.377167,60.495106 118.405441,56.723869 
	C118.008400,56.455212 117.973564,56.044888 117.973564,56.044888 
	C125.152702,58.799530 132.673782,60.900326 139.442398,64.439964 
	C155.321976,72.744171 169.352448,83.470383 179.079697,98.931976 
	C180.992722,101.972733 182.301773,105.393448 183.725693,108.997734 
z"/>
<path fill="#606060" opacity="1.000000" stroke="none" 
	d="
M111.214081,54.179035 
	C106.622307,53.724911 101.777046,53.184441 97.012482,52.237759 
	C82.676582,49.389332 68.200844,48.019634 53.646992,49.142044 
	C48.026619,49.575489 42.541664,51.764797 36.602779,53.134464 
	C38.341484,48.322258 43.348427,48.899426 46.938553,48.501766 
	C65.367378,46.460514 83.787369,46.764675 101.911514,51.424850 
	C104.951904,52.206615 107.969414,53.077354 111.214081,54.179035 
z"/>
<path fill="#606060" opacity="1.000000" stroke="none" 
	d="
M103.508438,90.726212 
	C102.480072,89.195091 101.666542,87.345566 100.735466,85.557251 
	C99.853775,83.863800 98.848785,82.234543 97.898018,80.577057 
	C97.387344,80.563736 96.876678,80.550423 96.366005,80.537102 
	C95.510010,84.381981 94.368156,88.191261 93.883682,92.082397 
	C93.455147,95.524208 94.183289,99.133934 93.571228,102.519554 
	C93.232872,104.391174 91.529091,106.860626 89.852745,107.487183 
	C84.837578,109.361641 79.532539,110.460548 73.965714,111.685852 
	C77.679131,109.906456 81.684303,108.021919 85.879921,106.781708 
	C89.868515,105.602684 92.699738,104.332405 92.363930,99.227684 
	C92.038895,94.286530 92.431786,89.238869 93.106537,84.319916 
	C93.382393,82.308907 95.228088,80.513237 96.359604,78.619606 
	C98.145630,80.346291 100.316811,81.829971 101.604591,83.871017 
	C102.788155,85.746895 103.020515,88.222923 103.508438,90.726212 
z"/>
<path fill="#B6B6B6" opacity="1.000000" stroke="none" 
	d="
M194.985382,151.564209 
	C202.055481,151.875610 203.190567,150.905701 202.742462,143.830017 
	C202.032532,132.619965 201.485901,121.381752 200.169266,110.238258 
	C199.747116,106.665474 200.533386,100.868866 193.389496,101.076241 
	C195.533691,98.622124 197.874893,98.548424 199.158676,101.905884 
	C201.002090,106.727036 202.080963,111.962227 202.671753,117.114067 
	C203.742355,126.449821 204.334595,135.847229 204.890701,145.232864 
	C205.283569,151.863586 201.508682,154.317825 194.985382,151.564209 
z"/>
<path fill="#4A4A4A" opacity="1.000000" stroke="none" 
	d="
M202.237671,90.266403 
	C206.149628,87.313980 210.715347,84.946777 214.374023,81.590714 
	C218.087769,78.184151 221.410690,74.101219 223.984467,69.767883 
	C226.958252,64.761063 224.248428,60.615814 218.794952,58.912354 
	C215.003815,57.728138 211.635468,55.190456 207.957504,52.957809 
	C209.803131,53.220844 211.829788,53.632423 213.719681,54.386669 
	C215.804352,55.218647 217.691925,56.557384 219.790634,57.338879 
	C226.413559,59.805027 228.728668,65.321640 225.183289,71.581123 
	C220.034821,80.670868 212.272141,86.806694 202.237671,90.266403 
z"/>
<path fill="#B3B3B3" opacity="1.000000" stroke="none" 
	d="
M270.769592,146.034027 
	C270.411804,139.046555 270.256378,131.936798 270.474548,124.838547 
	C270.544250,122.569473 271.603912,120.330833 272.210632,118.078270 
	C272.688995,118.050026 273.167389,118.021782 273.645752,117.993538 
	C278.376587,125.458351 283.107422,132.923157 287.856140,140.737656 
	C284.665405,137.030258 281.342865,133.056427 278.293396,128.883041 
	C276.620544,126.593590 275.408264,123.967583 272.982941,121.842010 
	C272.982941,127.735298 273.146027,133.635483 272.897369,139.518250 
	C272.806305,141.672150 271.738800,143.784775 270.769592,146.034027 
z"/>
<path fill="#606060" opacity="1.000000" stroke="none" 
	d="
M334.161072,132.759247 
	C330.192261,133.773926 326.256012,134.952866 322.243896,135.749268 
	C319.249786,136.343597 318.009583,134.664200 318.240112,131.720001 
	C318.755188,125.142075 321.794647,122.216454 328.474548,121.991539 
	C331.282135,121.897018 334.092499,121.889038 336.901276,121.826004 
	C340.141205,121.753304 341.951782,120.445854 341.299835,116.445557 
	C341.689789,115.988823 341.890991,115.973572 342.092163,115.958328 
	C343.750397,120.063774 342.686676,122.754913 338.056732,123.359024 
	C334.950012,123.764381 331.818542,124.048355 328.689148,124.197586 
	C321.431030,124.543694 320.239899,125.882576 320.671997,134.272842 
	C324.871704,133.530746 329.008362,132.799789 333.608643,132.199783 
	C334.072235,132.330734 334.161072,132.759247 334.161072,132.759247 
z"/>
<path fill="#606060" opacity="1.000000" stroke="none" 
	d="
M142.166504,109.328217 
	C138.882416,108.919090 135.430145,108.085793 131.931351,107.565224 
	C125.100464,106.548882 118.265495,105.238358 111.391655,104.916824 
	C103.492332,104.547325 103.181999,104.684891 103.058395,96.955833 
	C103.045135,96.126701 103.095406,95.296547 103.307434,94.028427 
	C103.620483,93.702919 103.848785,93.815651 103.848991,93.928810 
	C103.866241,103.356873 110.269264,102.579529 117.046692,103.290321 
	C125.465485,104.173256 133.676529,107.037094 142.166504,109.328217 
z"/>
<path fill="#B6B6B6" opacity="1.000000" stroke="none" 
	d="
M192.626740,100.977341 
	C189.602600,116.738533 189.685135,132.482880 192.959412,148.632980 
	C191.690460,146.200684 189.485168,143.402435 189.368042,140.519333 
	C188.935715,129.877731 189.001129,119.202095 189.332657,108.553360 
	C189.412323,105.994209 191.237289,103.489388 192.626740,100.977341 
z"/>
<path fill="#A5A5A5" opacity="1.000000" stroke="none" 
	d="
M228.732758,98.593857 
	C225.146347,100.269913 221.127975,101.334175 217.522705,103.197632 
	C214.065659,104.984474 210.428619,107.083214 207.968323,109.977837 
	C204.595398,113.946228 207.061584,118.424080 213.793030,121.864716 
	C209.190506,123.858116 207.040634,120.405952 205.149124,117.229927 
	C202.694229,113.107925 205.497528,109.601440 208.030380,107.112450 
	C213.590332,101.648834 220.678207,98.969414 228.732758,98.593857 
z"/>
<path fill="#717171" opacity="1.000000" stroke="none" 
	d="
M341.998688,115.601425 
	C341.890991,115.973572 341.689789,115.988823 341.187073,116.033104 
	C335.794464,116.062126 330.703339,116.062126 325.748383,116.062126 
	C323.847595,108.146637 326.219666,104.936493 333.473816,104.932640 
	C336.783112,104.930885 340.092407,104.958488 343.851990,105.178162 
	C341.126038,105.835968 337.911255,106.835182 334.782471,106.614662 
	C329.895844,106.270248 326.927277,107.649643 326.388275,113.503075 
	C329.463318,113.503075 332.524963,113.287415 335.538361,113.575790 
	C337.694122,113.782104 339.785248,114.664032 341.998688,115.601425 
z"/>
<path fill="#606060" opacity="1.000000" stroke="none" 
	d="
M363.739471,107.253227 
	C364.280365,104.847336 365.179962,102.308624 365.956909,99.732925 
	C366.551666,97.761131 366.991394,95.742584 367.023132,93.556206 
	C360.138000,98.008667 357.738037,105.548218 353.234497,111.907700 
	C356.555542,105.688194 360.099243,99.287506 364.013000,93.121712 
	C364.621277,92.163429 366.920319,92.278320 368.437500,91.896957 
	C368.621552,93.380318 369.347717,95.063896 368.887695,96.309395 
	C367.524536,100.000435 365.693512,103.518684 363.739471,107.253227 
z"/>
<path fill="#606060" opacity="1.000000" stroke="none" 
	d="
M372.123016,147.443542 
	C373.599792,146.318359 375.424744,145.360336 377.244873,144.393188 
	C386.637726,139.402084 393.773438,132.406967 397.166107,122.053139 
	C397.471710,121.120468 398.077728,120.286247 398.833435,119.195251 
	C398.220642,122.043579 397.812469,125.370209 396.327515,128.114136 
	C391.081635,137.807968 383.250122,144.571869 372.123016,147.443542 
z"/>
<path fill="#4A4A4A" opacity="1.000000" stroke="none" 
	d="
M181.584137,63.988682 
	C181.228210,65.347992 180.723465,66.918365 179.832794,68.225822 
	C177.347488,71.874092 176.357590,75.757553 177.969666,79.941826 
	C179.767365,84.607857 181.831070,89.171410 183.925552,94.126328 
	C185.641815,92.730453 186.787018,91.799049 188.251862,90.836319 
	C187.121506,92.150566 185.807465,94.278160 184.173004,94.562263 
	C183.112289,94.746628 181.120895,92.466652 180.357498,90.896515 
	C178.517441,87.111862 176.778931,83.196808 175.685593,79.149010 
	C174.025620,73.003410 177.465836,68.395691 181.584137,63.988682 
z"/>
<path fill="#606060" opacity="1.000000" stroke="none" 
	d="
M399.184082,105.774536 
	C398.143463,104.881966 397.117798,103.848915 396.420654,102.628220 
	C392.754425,96.208649 388.468872,95.236748 382.674774,100.156593 
	C378.396606,103.789246 374.600128,107.989227 370.244080,111.930878 
	C374.713531,106.998695 379.115784,101.552895 384.468109,97.303825 
	C389.044006,93.671127 392.966156,95.001907 396.307800,99.883194 
	C397.511566,101.641548 398.347046,103.652039 399.184082,105.774536 
z"/>
<path fill="#B3B3B3" opacity="1.000000" stroke="none" 
	d="
M290.879456,143.846527 
	C299.819977,144.906891 301.570404,138.135284 304.087128,131.717499 
	C304.661285,132.158264 305.000336,132.845169 305.956238,133.763367 
	C306.776794,133.999008 306.980469,134.003372 307.184204,134.007721 
	C308.213318,137.693466 309.242462,141.379227 310.256226,145.450775 
	C308.238556,143.321671 306.236298,140.806763 304.375122,138.469101 
	C302.187469,140.489670 300.038361,143.219406 297.236206,144.766159 
	C295.706207,145.610733 293.070404,144.452057 290.879456,143.846527 
z"/>
<path fill="#B6B6B6" opacity="1.000000" stroke="none" 
	d="
M34.875008,55.227699 
	C35.149872,55.652786 35.026714,56.136562 35.006317,56.624634 
	C34.904701,59.055897 33.885960,62.927475 34.942577,63.620644 
	C37.141335,65.063095 40.444092,64.822701 42.162956,65.094925 
	C45.177204,61.878212 34.938019,61.346287 43.398926,58.529152 
	C44.372166,58.746037 44.614689,58.819439 44.857216,58.892845 
	C44.478168,61.439663 44.999302,64.860229 43.542583,66.361015 
	C39.920265,70.092903 36.086521,66.812866 32.893246,64.868240 
	C30.058229,63.141792 30.822271,60.349941 32.636303,57.947021 
	C33.290932,57.079884 33.896439,56.175667 34.875008,55.227699 
z"/>
<path fill="#525252" opacity="1.000000" stroke="none" 
	d="
M179.283966,141.821869 
	C180.357941,137.989639 182.431870,134.130112 182.998703,130.060684 
	C183.760239,124.593369 183.357910,118.963943 183.775970,113.192673 
	C184.603989,113.352913 185.523758,113.690193 185.558029,114.101295 
	C186.374329,123.892654 187.100418,133.692993 179.283966,141.821869 
z"/>
<path fill="#424242" opacity="1.000000" stroke="none" 
	d="
M69.178665,136.310349 
	C68.503334,136.907211 67.828011,137.504089 66.732651,138.306671 
	C66.312614,138.512375 66.365562,138.444672 66.638878,138.102844 
	C66.751602,137.422546 66.591019,137.084076 66.430435,136.745621 
	C66.102921,137.129395 65.775414,137.513153 65.447906,137.896912 
	C62.739449,134.971802 60.030998,132.046692 57.386749,128.759949 
	C58.717621,126.942451 59.984295,125.486610 61.591209,124.427124 
	C62.584686,126.748100 62.892975,128.900726 63.976929,130.540634 
	C65.388847,132.676712 67.416168,134.406006 69.178665,136.310349 
z"/>
<path fill="#A5A5A5" opacity="1.000000" stroke="none" 
	d="
M253.043701,98.263130 
	C246.359253,98.707184 239.544022,98.816498 232.274948,98.757416 
	C233.191147,97.830017 234.592377,96.373520 235.925827,96.433151 
	C241.599136,96.686867 247.252365,97.389603 253.043701,98.263130 
z"/>
<path fill="#717171" opacity="1.000000" stroke="none" 
	d="
M304.326538,116.732697 
	C302.908783,114.218338 301.777893,111.387627 300.449310,108.652962 
	C298.112122,103.842232 295.654114,99.090195 293.383331,93.965057 
	C299.834259,99.956131 302.598450,108.005936 304.326538,116.732697 
z"/>
<path fill="#7F7F7F" opacity="1.000000" stroke="none" 
	d="
M291.042786,126.589584 
	C288.932404,124.386589 286.703888,121.907867 284.708160,119.254059 
	C281.072693,114.419701 277.575317,109.481476 274.076660,104.236496 
	C277.124481,107.325653 280.315430,110.614540 283.052734,114.245399 
	C285.937408,118.071716 288.388855,122.224663 291.042786,126.589584 
z"/>
<path fill="#7F7F7F" opacity="1.000000" stroke="none" 
	d="
M274.099945,103.511765 
	C267.554199,101.139122 265.905396,102.106995 264.281464,109.467529 
	C263.756439,111.847191 263.005585,114.177025 262.072815,116.768295 
	C262.451172,113.066925 262.665741,108.981834 263.881165,105.220139 
	C265.813721,99.239029 269.514954,98.656708 274.099945,103.511765 
z"/>
<path fill="#606060" opacity="1.000000" stroke="none" 
	d="
M363.286194,120.778221 
	C362.728516,122.699135 361.866547,124.793243 360.842987,127.279900 
	C356.298035,122.151283 356.842590,117.735588 362.642334,109.046936 
	C361.553497,113.698563 360.104218,118.397255 358.654968,123.095940 
	C359.198273,123.365234 359.741577,123.634529 360.284882,123.903824 
	C361.183899,122.919685 362.082886,121.935555 363.286194,120.778221 
z"/>
<path fill="#606060" opacity="1.000000" stroke="none" 
	d="
M149.175446,126.735405 
	C151.424271,119.717590 148.696426,114.644920 143.046814,110.279037 
	C152.107834,114.145164 154.005737,119.091255 149.175446,126.735405 
z"/>
<path fill="#7F7F7F" opacity="1.000000" stroke="none" 
	d="
M291.067810,90.470963 
	C289.627899,90.489281 288.097595,90.158707 285.675232,89.635437 
	C287.137115,94.993607 288.425140,99.714539 289.502808,104.709152 
	C287.782349,101.206947 285.998444,97.508675 284.895782,93.617363 
	C284.449066,92.041023 285.487823,90.043739 285.850616,88.237991 
	C287.559540,88.866013 289.268494,89.494034 291.067810,90.470963 
z"/>
<path fill="#606060" opacity="1.000000" stroke="none" 
	d="
M115.899658,162.621735 
	C122.261642,162.205612 128.839996,162.075577 135.872604,162.148087 
	C129.589920,162.536362 122.852974,162.722092 115.899658,162.621735 
z"/>
<path fill="#4A4A4A" opacity="1.000000" stroke="none" 
	d="
M201.800598,52.535225 
	C199.688263,53.743633 197.054123,54.503052 194.784378,55.868271 
	C190.612320,58.377693 186.654785,61.243740 182.252502,63.938499 
	C186.790070,57.319626 193.721344,54.171005 201.800598,52.535225 
z"/>
<path fill="#878787" opacity="1.000000" stroke="none" 
	d="
M65.283073,56.946735 
	C71.008926,57.069454 77.018913,57.466038 83.179932,58.189751 
	C77.409714,58.084785 71.488464,57.652695 65.283073,56.946735 
z"/>
<path fill="#878787" opacity="1.000000" stroke="none" 
	d="
M45.306282,58.846394 
	C44.614689,58.819439 44.372166,58.746037 43.787945,58.504772 
	C46.952572,57.613220 50.440166,56.769787 53.973232,56.216976 
	C55.707630,55.945599 57.526367,56.213200 59.650101,56.455139 
	C55.247295,57.382240 50.501324,58.091091 45.306282,58.846394 
z"/>
<path fill="#B3B3B3" opacity="1.000000" stroke="none" 
	d="
M325.878998,149.670578 
	C330.987000,146.232803 336.468597,142.973969 342.298035,139.701599 
	C340.883118,141.419159 339.373199,143.588898 337.301025,144.783127 
	C333.805817,146.797470 329.954285,148.193466 325.878998,149.670578 
z"/>
<path fill="#606060" opacity="1.000000" stroke="none" 
	d="
M350.598022,132.261917 
	C355.800720,136.628342 355.933411,139.069092 351.203064,146.889816 
	C350.849731,146.262085 350.551575,145.325424 350.888977,144.786911 
	C353.530609,140.570419 353.144165,136.532166 350.598022,132.261917 
z"/>
<path fill="#7F7F7F" opacity="1.000000" stroke="none" 
	d="
M221.092911,115.265198 
	C219.987854,115.076256 218.705688,114.550148 217.423523,114.024033 
	C218.340820,112.994537 219.069962,111.485466 220.214951,111.036240 
	C222.539185,110.124306 225.088303,109.785538 227.942719,109.401863 
	C226.230682,110.335205 224.161560,111.244278 221.999451,111.773293 
	C219.733475,112.327705 219.069565,113.112999 221.092911,115.265198 
z"/>
<path fill="#979797" opacity="1.000000" stroke="none" 
	d="
M315.731293,96.561432 
	C314.739868,97.458534 313.548096,98.514137 312.238129,98.690224 
	C306.950287,99.401001 308.454620,101.633484 310.977844,104.525711 
	C309.362946,103.477875 307.592621,102.093620 305.822296,100.709358 
	C305.993469,100.065262 306.164612,99.421165 306.335754,98.777069 
	C309.382690,97.956596 312.429657,97.136116 315.731293,96.561432 
z"/>
<path fill="#7F7F7F" opacity="1.000000" stroke="none" 
	d="
M235.322540,109.473785 
	C238.482651,108.535484 241.962067,107.815132 245.870850,107.280220 
	C242.747406,108.207680 239.194641,108.949699 235.322540,109.473785 
z"/>
<path fill="#606060" opacity="1.000000" stroke="none" 
	d="
M346.103394,164.311371 
	C346.008759,168.006638 345.648651,171.969009 344.967316,176.082108 
	C345.043365,172.348053 345.440674,168.463272 346.103394,164.311371 
z"/>
<path fill="#B3B3B3" opacity="1.000000" stroke="none" 
	d="
M312.168488,148.129730 
	C315.879456,148.317230 319.591278,148.873856 323.661926,149.594330 
	C320.351593,152.796921 317.191406,152.461121 312.168488,148.129730 
z"/>
<path fill="#606060" opacity="1.000000" stroke="none" 
	d="
M350.196045,148.743225 
	C349.431702,152.702637 348.373962,156.846512 346.992493,161.116302 
	C347.746735,157.137360 348.824707,153.032516 350.196045,148.743225 
z"/>
<path fill="#979797" opacity="1.000000" stroke="none" 
	d="
M328.682068,94.489471 
	C325.856781,95.456032 322.734863,96.184227 319.196899,96.737213 
	C321.982391,95.791695 325.183868,95.021400 328.682068,94.489471 
z"/>
<path fill="#A5A5A5" opacity="1.000000" stroke="none" 
	d="
M254.969528,104.946609 
	C257.223480,103.255417 258.276001,101.478302 255.190887,99.111526 
	C256.444336,99.558243 257.871826,100.311195 259.299316,101.064148 
	C258.084564,102.685852 256.869781,104.307556 255.311737,105.672066 
	C254.968460,105.414871 254.969528,104.946609 254.969528,104.946609 
z"/>
<path fill="#A5A5A5" opacity="1.000000" stroke="none" 
	d="
M357.578247,185.020966 
	C357.551575,181.872543 357.866150,178.627151 358.510132,175.184540 
	C358.532837,178.299545 358.226135,181.611771 357.578247,185.020966 
z"/>
<path fill="#606060" opacity="1.000000" stroke="none" 
	d="
M350.269135,120.799850 
	C350.639923,123.559448 350.759186,126.539276 350.682495,129.981918 
	C347.869324,127.425613 348.584839,124.240685 350.269135,120.799850 
z"/>
<path fill="#878787" opacity="1.000000" stroke="none" 
	d="
M172.209045,126.197472 
	C172.132538,126.526169 171.971878,126.806671 171.481934,127.027481 
	C171.042603,123.539085 170.848373,120.062202 170.915314,116.287384 
	C171.515259,116.384850 171.854019,116.780243 172.149902,117.920601 
	C172.141022,121.176201 172.175034,123.686836 172.209045,126.197472 
z"/>
<path fill="#525252" opacity="1.000000" stroke="none" 
	d="
M154.816605,145.415863 
	C152.224487,146.987518 149.276443,148.465591 145.948883,149.762024 
	C148.533142,148.161026 151.496902,146.741669 154.816605,145.415863 
z"/>
<path fill="#B6B6B6" opacity="1.000000" stroke="none" 
	d="
M314.070190,106.457817 
	C314.709839,106.371956 316.095551,106.935738 316.073059,106.999016 
	C315.005890,110.001572 313.816650,112.960754 312.275055,115.854309 
	C312.658997,112.813828 313.409119,109.843903 314.070190,106.457817 
z"/>
<path fill="#979797" opacity="1.000000" stroke="none" 
	d="
M343.107086,94.193680 
	C340.702789,94.590996 338.161377,94.697281 335.180267,94.609207 
	C337.379120,92.563530 340.065491,91.481110 343.107086,94.193680 
z"/>
<path fill="#606060" opacity="1.000000" stroke="none" 
	d="
M106.250488,165.823380 
	C105.628563,159.836273 106.011261,159.456131 110.860245,161.402985 
	C109.515030,163.097321 108.056786,164.440155 106.250488,165.823380 
z"/>
<path fill="#7F7F7F" opacity="1.000000" stroke="none" 
	d="
M291.451996,114.060638 
	C292.348206,115.994308 293.070221,118.303139 293.598145,120.978592 
	C292.695312,119.042068 291.986572,116.738937 291.451996,114.060638 
z"/>
<path fill="#7F7F7F" opacity="1.000000" stroke="none" 
	d="
M222.884277,147.819977 
	C225.100922,147.953812 227.524933,148.373001 230.138885,149.084946 
	C227.916443,148.953583 225.504044,148.529449 222.884277,147.819977 
z"/>
<path fill="#717171" opacity="1.000000" stroke="none" 
	d="
M346.224243,105.398773 
	C346.941376,103.413170 347.889801,101.636459 348.877014,99.484375 
	C352.103271,101.961258 351.472778,103.626694 346.224243,105.398773 
z"/>
<path fill="#606060" opacity="1.000000" stroke="none" 
	d="
M135.849792,130.566101 
	C137.856491,130.310791 139.962753,130.375458 142.411087,130.629089 
	C140.485214,130.840744 138.217300,130.863419 135.849792,130.566101 
z"/>
<path fill="#606060" opacity="1.000000" stroke="none" 
	d="
M71.783813,111.765137 
	C69.872169,113.344337 67.742989,114.738083 65.246964,116.013496 
	C67.108841,114.456673 69.337555,113.018181 71.783813,111.765137 
z"/>
<path fill="#878787" opacity="1.000000" stroke="none" 
	d="
M171.101685,112.004799 
	C171.138855,112.490822 171.176025,112.976837 171.034454,113.783348 
	C169.491516,111.484436 168.127335,108.865028 167.035934,106.115936 
	C168.123993,107.115341 168.939285,108.244423 169.908356,109.952820 
	C170.408661,111.023018 170.755173,111.513908 171.101685,112.004799 
z"/>
<path fill="#A5A5A5" opacity="1.000000" stroke="none" 
	d="
M359.685028,170.079529 
	C359.665131,168.201523 359.967926,166.238403 360.621857,164.136200 
	C360.651245,165.996231 360.329468,167.995331 359.685028,170.079529 
z"/>
<path fill="#606060" opacity="1.000000" stroke="none" 
	d="
M368.797913,113.230576 
	C367.665527,115.494301 366.200623,117.772896 364.389984,120.039604 
	C365.517975,117.766953 366.991699,115.506203 368.797913,113.230576 
z"/>
<path fill="#606060" opacity="1.000000" stroke="none" 
	d="
M142.235931,162.093994 
	C143.840332,161.211807 145.671906,160.549301 147.876526,160.066055 
	C146.320740,160.934753 144.391922,161.624222 142.235931,162.093994 
z"/>
<path fill="#7F7F7F" opacity="1.000000" stroke="none" 
	d="
M210.758820,131.190628 
	C211.164795,133.131729 211.219894,135.144180 211.143738,137.572327 
	C208.048004,135.994339 208.767792,133.669525 210.758820,131.190628 
z"/>
<path fill="#606060" opacity="1.000000" stroke="none" 
	d="
M92.424370,156.195190 
	C93.396271,157.975616 94.333977,160.135956 95.120285,162.666565 
	C94.109322,160.882935 93.249748,158.729004 92.424370,156.195190 
z"/>
<path fill="#B3B3B3" opacity="1.000000" stroke="none" 
	d="
M343.042664,139.735474 
	C343.203522,137.952652 343.697632,136.272064 344.320007,134.216461 
	C348.769836,136.676987 345.275269,138.114700 343.042664,139.735474 
z"/>
<path fill="#606060" opacity="1.000000" stroke="none" 
	d="
M344.390503,182.121887 
	C345.778931,183.485306 347.007141,185.175110 348.242065,187.197586 
	C346.909302,185.836273 345.569824,184.142273 344.390503,182.121887 
z"/>
<path fill="#606060" opacity="1.000000" stroke="none" 
	d="
M399.657104,116.162292 
	C399.228973,114.091248 399.091217,111.824028 399.151794,109.105347 
	C399.549194,111.091293 399.748322,113.528709 399.657104,116.162292 
z"/>
<path fill="#717171" opacity="1.000000" stroke="none" 
	d="
M304.636414,127.818275 
	C304.208618,125.892670 304.085083,123.686485 304.160034,121.090378 
	C304.552582,122.979530 304.746613,125.258621 304.636414,127.818275 
z"/>
<path fill="#7F7F7F" opacity="1.000000" stroke="none" 
	d="
M289.410248,107.049500 
	C290.293457,108.284912 291.027679,109.877167 291.567139,111.722290 
	C290.668701,110.452232 289.964996,108.929291 289.410248,107.049500 
z"/>
<path fill="#7F7F7F" opacity="1.000000" stroke="none" 
	d="
M254.591370,104.931107 
	C254.969528,104.946609 254.968460,105.414871 254.958649,105.648651 
	C253.129730,106.476036 251.310623,107.069633 249.249161,107.451584 
	C250.742279,106.465164 252.477753,105.690384 254.591370,104.931107 
z"/>
<path fill="#B3B3B3" opacity="1.000000" stroke="none" 
	d="
M308.939331,118.880714 
	C309.663818,120.335648 310.035522,121.888771 310.018555,123.734116 
	C309.279266,124.007866 308.928589,123.989410 308.577942,123.970955 
	C308.580811,122.306938 308.583679,120.642929 308.939331,118.880714 
z"/>
<path fill="#B3B3B3" opacity="1.000000" stroke="none" 
	d="
M334.511078,132.733582 
	C334.161072,132.759247 334.072235,132.330734 334.035706,132.115005 
	C335.224823,131.388733 336.450470,130.878204 337.958984,130.754669 
	C338.038910,131.532181 337.835907,131.922684 337.632935,132.313171 
	C336.708984,132.444748 335.785034,132.576340 334.511078,132.733582 
z"/>
<path fill="#606060" opacity="1.000000" stroke="none" 
	d="
M117.689163,55.918365 
	C117.973564,56.044888 118.008400,56.455212 118.040924,56.658478 
	C116.473976,56.371834 114.874512,55.881927 113.125458,55.045963 
	C114.452171,55.063885 115.928474,55.427864 117.689163,55.918365 
z"/>
<path fill="#4A4A4A" opacity="1.000000" stroke="none" 
	d="
M192.324951,90.783806 
	C193.983154,90.384811 195.870117,90.243599 198.148071,90.290131 
	C196.543930,90.665779 194.548843,90.853683 192.324951,90.783806 
z"/>
<path fill="#A5A5A5" opacity="1.000000" stroke="none" 
	d="
M363.804932,154.047546 
	C363.850800,152.713318 364.215210,151.230530 364.897461,149.610855 
	C364.851349,150.948975 364.487396,152.423981 363.804932,154.047546 
z"/>
<path fill="#606060" opacity="1.000000" stroke="none" 
	d="
M352.282043,113.718903 
	C352.231934,114.979073 351.907532,116.365372 351.218506,117.882965 
	C351.238495,116.624519 351.623138,115.234772 352.282043,113.718903 
z"/>
<path fill="#A5A5A5" opacity="1.000000" stroke="none" 
	d="
M361.806213,160.143768 
	C361.798676,158.882782 362.096558,157.559357 362.740723,156.122528 
	C362.761902,157.366516 362.436798,158.723923 361.806213,160.143768 
z"/>
<path fill="#606060" opacity="1.000000" stroke="none" 
	d="
M338.081787,132.495285 
	C337.835907,131.922684 338.038910,131.532181 338.309692,130.930664 
	C338.935394,130.688141 339.493256,130.656616 340.403809,130.863708 
	C340.950531,131.491074 341.144562,131.879837 341.338623,132.268600 
	C340.402618,132.404861 339.466614,132.541138 338.081787,132.495285 
z"/>
<path fill="#606060" opacity="1.000000" stroke="none" 
	d="
M151.173752,159.990662 
	C152.177795,159.114075 153.336456,158.468262 154.826660,157.983505 
	C153.881607,158.836868 152.604996,159.529160 151.173752,159.990662 
z"/>
<path fill="#525252" opacity="1.000000" stroke="none" 
	d="
M176.183945,145.730225 
	C176.660614,144.492569 177.475433,143.253937 178.616913,141.987686 
	C178.136398,143.216476 177.329254,144.472870 176.183945,145.730225 
z"/>
<path fill="#7F7F7F" opacity="1.000000" stroke="none" 
	d="
M217.842377,145.563385 
	C218.781021,145.684753 219.778503,146.090256 220.889343,146.827682 
	C219.968857,146.722244 218.935043,146.284866 217.842377,145.563385 
z"/>
<path fill="#B6B6B6" opacity="1.000000" stroke="none" 
	d="
M307.435883,133.750397 
	C306.980469,134.003372 306.776794,133.999008 306.267426,133.990204 
	C306.447784,132.719803 306.933807,131.453842 307.771912,130.127060 
	C307.978516,131.208496 307.833038,132.350784 307.435883,133.750397 
z"/>
<path fill="#B3B3B3" opacity="1.000000" stroke="none" 
	d="
M341.642822,132.391479 
	C341.144562,131.879837 340.950531,131.491074 340.682892,130.896011 
	C341.450775,131.042816 342.292267,131.395920 343.169067,132.080032 
	C342.785309,132.445480 342.366150,132.479919 341.642822,132.391479 
z"/>
<path fill="#A5A5A5" opacity="1.000000" stroke="none" 
	d="
M350.221008,190.135345 
	C351.154053,190.255890 352.059509,190.741806 353.057617,191.541916 
	C352.164673,191.404297 351.179016,190.952499 350.221008,190.135345 
z"/>
<path fill="#B6B6B6" opacity="1.000000" stroke="none" 
	d="
M308.481232,124.326683 
	C308.928589,123.989410 309.279266,124.007866 309.896545,124.040710 
	C310.194763,124.614738 310.226288,125.174377 309.999268,125.869186 
	C309.288635,125.563698 308.836578,125.123055 308.481232,124.326683 
z"/>
<path fill="#606060" opacity="1.000000" stroke="none" 
	d="
M348.422668,188.071686 
	C349.072144,188.135117 349.667908,188.509857 350.262207,189.169647 
	C349.630157,189.097443 348.999573,188.740204 348.422668,188.071686 
z"/>
<path fill="#7F7F7F" opacity="1.000000" stroke="none" 
	d="
M211.558228,139.936890 
	C212.282440,140.100266 212.855774,140.558945 213.360397,141.309204 
	C212.663589,141.144592 212.035477,140.688385 211.558228,139.936890 
z"/>
<path fill="#878787" opacity="1.000000" stroke="none" 
	d="
M170.554443,128.995987 
	C170.760300,129.720947 170.627777,130.523956 170.162231,131.384201 
	C169.958160,130.652298 170.087097,129.863174 170.554443,128.995987 
z"/>
<path fill="#878787" opacity="1.000000" stroke="none" 
	d="
M160.616058,96.906723 
	C161.345474,97.018463 161.942688,97.441658 162.471039,98.156052 
	C161.762726,98.037560 161.123291,97.627869 160.616058,96.906723 
z"/>
<path fill="#B3B3B3" opacity="1.000000" stroke="none" 
	d="
M287.911194,141.443069 
	C288.548065,141.563263 289.177734,142.004913 289.836121,142.763672 
	C289.211243,142.642044 288.557587,142.203278 287.911194,141.443069 
z"/>
<path fill="#878787" opacity="1.000000" stroke="none" 
	d="
M158.044678,143.412918 
	C157.798569,144.136505 157.241028,144.722198 156.370926,145.186432 
	C156.616653,144.468323 157.174957,143.871674 158.044678,143.412918 
z"/>
<path fill="#606060" opacity="1.000000" stroke="none" 
	d="
M158.042816,157.553040 
	C158.348984,156.873016 158.943665,156.347244 159.841553,155.975677 
	C159.540283,156.655701 158.935791,157.181488 158.042816,157.553040 
z"/>
<path fill="#606060" opacity="1.000000" stroke="none" 
	d="
M162.990479,155.359680 
	C163.233643,154.683105 163.748413,154.164291 164.549164,153.763351 
	C164.310806,154.426620 163.786453,154.972031 162.990479,155.359680 
z"/>
<path fill="#606060" opacity="1.000000" stroke="none" 
	d="
M89.207085,154.199829 
	C89.853882,154.067886 90.555061,154.244873 91.283493,154.722443 
	C90.627647,154.851578 89.944557,154.680161 89.207085,154.199829 
z"/>
<path fill="#606060" opacity="1.000000" stroke="none" 
	d="
M85.242561,152.171646 
	C85.882294,152.091476 86.564804,152.320251 87.273300,152.850296 
	C86.627975,152.927902 85.956650,152.704254 85.242561,152.171646 
z"/>
<path fill="#525252" opacity="1.000000" stroke="none" 
	d="
M174.168091,147.698822 
	C174.289749,147.044662 174.721283,146.447067 175.443512,145.846344 
	C175.315445,146.480591 174.896713,147.117996 174.168091,147.698822 
z"/>
<path fill="#606060" opacity="1.000000" stroke="none" 
	d="
M79.929543,149.432800 
	C80.628311,149.308502 81.402161,149.490723 82.231636,149.990967 
	C81.526382,150.119110 80.765495,149.929230 79.929543,149.432800 
z"/>
<path fill="#050505" opacity="1.000000" stroke="none" 
	d="
M65.572876,138.060776 
	C65.775414,137.513153 66.102921,137.129395 66.430435,136.745621 
	C66.591019,137.084076 66.751602,137.422546 66.679298,138.088257 
	C66.446404,138.415497 66.047028,138.419083 66.047028,138.419083 
	C66.047028,138.419083 65.697853,138.224640 65.572876,138.060776 
z"/>
<path fill="#EFEFEF" opacity="1.000000" stroke="none" 
	d="
M69.485031,136.440643 
	C67.416168,134.406006 65.388847,132.676712 63.976929,130.540634 
	C62.892975,128.900726 62.584686,126.748100 61.976910,124.420242 
	C62.022369,124.017006 62.000973,124.002449 62.372902,124.020660 
	C65.492233,122.668480 68.239639,121.298080 70.987045,119.927689 
	C71.420570,119.924667 71.854088,119.921638 72.973289,119.935333 
	C76.099182,119.263420 78.539398,118.574799 80.979614,117.886169 
	C82.030235,117.879601 83.080849,117.873032 84.951378,117.898880 
	C92.425873,117.630836 92.425438,117.630836 92.422935,124.468369 
	C92.421730,127.768684 92.543510,131.074554 92.392548,134.367950 
	C92.191536,138.752930 91.778954,143.128189 91.457253,147.507629 
	C91.003914,147.423325 90.550575,147.339005 89.726089,146.983948 
	C88.188637,146.318970 87.022346,145.924744 85.856049,145.530502 
	C85.452240,145.376770 85.048439,145.223038 84.242676,144.736389 
	C83.278160,144.189789 82.715607,143.976105 82.153053,143.762421 
	C81.629829,143.521423 81.106598,143.280441 80.194725,142.725601 
	C79.245903,142.201813 78.685722,141.991867 78.125549,141.781921 
	C78.125549,141.781921 77.924515,141.500351 77.561279,141.201355 
	C75.092842,139.710052 72.987633,138.517731 70.882423,137.325409 
	C70.518745,137.073914 70.155075,136.822433 69.485031,136.440643 
z"/>
<path fill="#424242" opacity="1.000000" stroke="none" 
	d="
M91.868729,147.632996 
	C91.778954,143.128189 92.191536,138.752930 92.392548,134.367950 
	C92.543510,131.074554 92.421730,127.768684 92.422935,124.468369 
	C92.425438,117.630836 92.425873,117.630836 85.328018,117.778099 
	C87.027420,116.884018 89.282028,115.396545 91.268974,115.694427 
	C92.383583,115.861534 93.742096,118.957985 93.807442,120.777122 
	C94.086868,128.556091 93.996567,136.352188 93.852051,144.138535 
	C93.829483,145.354446 92.828667,146.552216 91.868729,147.632996 
z"/>
<path fill="#424242" opacity="1.000000" stroke="none" 
	d="
M70.761902,119.659119 
	C68.239639,121.298080 65.492233,122.668480 62.380478,124.030273 
	C63.522034,120.023010 66.752205,119.196800 70.761902,119.659119 
z"/>
<path fill="#424242" opacity="1.000000" stroke="none" 
	d="
M80.733887,117.610992 
	C78.539398,118.574799 76.099182,119.263420 73.278084,119.816620 
	C75.427521,118.899414 77.957832,118.117615 80.733887,117.610992 
z"/>
<path fill="#525252" opacity="1.000000" stroke="none" 
	d="
M172.541656,126.038567 
	C172.175034,123.686836 172.141022,121.176201 172.204666,118.200806 
	C172.492981,120.450577 172.683624,123.165123 172.541656,126.038567 
z"/>
<path fill="#424242" opacity="1.000000" stroke="none" 
	d="
M70.866425,137.682831 
	C72.987633,138.517731 75.092842,139.710052 77.390335,141.174896 
	C75.338554,140.311722 73.094490,139.175980 70.866425,137.682831 
z"/>
<path fill="#424242" opacity="1.000000" stroke="none" 
	d="
M85.965881,145.862946 
	C87.022346,145.924744 88.188637,146.318970 89.495506,147.010895 
	C88.449287,146.937500 87.262497,146.566452 85.965881,145.862946 
z"/>
<path fill="#525252" opacity="1.000000" stroke="none" 
	d="
M171.277405,111.817230 
	C170.755173,111.513908 170.408661,111.023018 170.078522,110.215759 
	C170.547653,110.476143 171.000397,111.052910 171.277405,111.817230 
z"/>
<path fill="#424242" opacity="1.000000" stroke="none" 
	d="
M78.076462,142.087769 
	C78.685722,141.991867 79.245903,142.201813 79.901047,142.717377 
	C79.339806,142.813187 78.683594,142.603394 78.076462,142.087769 
z"/>
<path fill="#424242" opacity="1.000000" stroke="none" 
	d="
M82.116119,144.068054 
	C82.715607,143.976105 83.278160,144.189789 83.917809,144.715881 
	C83.356331,144.810089 82.717751,144.591888 82.116119,144.068054 
z"/>
<path fill="#F4F4F4" opacity="1.000000" stroke="none" 
	d="
M379.715057,118.788986 
	C381.062561,116.746780 382.410065,114.704575 384.271301,112.328094 
	C385.422638,110.923035 386.060272,109.852249 386.697937,108.781479 
	C387.258972,108.243126 387.820007,107.704765 389.043152,107.048187 
	C390.619629,108.140358 392.358826,109.393890 392.298187,110.553284 
	C392.091614,114.502930 391.250702,118.419395 390.651917,122.348526 
	C386.654236,125.790222 382.656494,129.231918 378.034119,132.554413 
	C376.329742,132.320908 375.250000,132.206573 373.820526,132.055222 
	C374.569519,129.719421 375.189514,127.785828 375.809540,125.852234 
	C375.927216,125.496284 376.044861,125.140335 376.587982,124.466980 
	C377.913971,122.362717 378.814514,120.575851 379.715057,118.788986 
z"/>
<path fill="#7F7F7F" opacity="1.000000" stroke="none" 
	d="
M390.974854,122.213821 
	C391.250702,118.419395 392.091614,114.502930 392.298187,110.553284 
	C392.358826,109.393890 390.619629,108.140358 389.262573,106.852890 
	C391.505096,104.483101 393.473480,104.726036 393.491669,107.920525 
	C393.518524,112.635742 392.100494,117.359184 390.974854,122.213821 
z"/>
<path fill="#7F7F7F" opacity="1.000000" stroke="none" 
	d="
M375.462189,125.931656 
	C375.189514,127.785828 374.569519,129.719421 373.820526,132.055222 
	C375.250000,132.206573 376.329742,132.320908 377.700897,132.646423 
	C376.151459,133.336411 374.310638,133.815201 372.469788,134.293976 
	C372.675568,132.642899 372.685333,130.933884 373.150757,129.359573 
	C373.506805,128.155121 374.438934,127.120972 375.462189,125.931656 
z"/>
<path fill="#7F7F7F" opacity="1.000000" stroke="none" 
	d="
M379.369385,118.821365 
	C378.814514,120.575851 377.913971,122.362717 376.676910,124.200195 
	C377.234833,122.451782 378.129272,120.652763 379.369385,118.821365 
z"/>
<path fill="#7F7F7F" opacity="1.000000" stroke="none" 
	d="
M386.368652,108.845581 
	C386.060272,109.852249 385.422638,110.923035 384.453674,112.050262 
	C384.761353,111.041039 385.400360,109.975372 386.368652,108.845581 
z"/>
<path fill="#F4F4F4" opacity="1.000000" stroke="none" 
	d="
M226.681641,132.948578 
	C227.826157,134.131119 228.686264,135.147812 230.437500,137.217819 
	C225.795486,137.217819 222.011322,137.217819 217.722351,137.365417 
	C216.515533,136.215637 215.813492,134.918274 215.624359,133.219208 
	C219.150055,132.644608 222.162827,132.471725 225.175613,132.298843 
	C225.582825,132.460129 225.990051,132.621429 226.681641,132.948578 
z"/>
<path fill="#4A4A4A" opacity="1.000000" stroke="none" 
	d="
M225.081848,131.950928 
	C222.162827,132.471725 219.150055,132.644608 215.695099,132.805328 
	C216.498825,129.280243 220.382950,128.805389 225.081848,131.950928 
z"/>
<path fill="#0E0E0E" opacity="1.000000" stroke="none" 
	d="
M237.029297,133.365326 
	C235.607269,133.903397 233.999817,134.040848 232.091614,133.993286 
	C233.475189,133.527084 235.159531,133.245895 237.029297,133.365326 
z"/>
<path fill="#A5A5A5" opacity="1.000000" stroke="none" 
	d="
M241.233765,123.456039 
	C240.033768,123.591919 238.629303,123.429970 237.066605,122.951515 
	C238.282013,122.809410 239.655640,122.983810 241.233765,123.456039 
z"/>
<path fill="#525252" opacity="1.000000" stroke="none" 
	d="
M220.198853,126.224678 
	C221.206543,125.754097 222.417007,125.549004 223.817352,125.622833 
	C222.805374,126.097885 221.603500,126.294029 220.198853,126.224678 
z"/>
<path fill="#424242" opacity="1.000000" stroke="none" 
	d="
M232.099564,139.115295 
	C232.524887,138.638504 233.067856,138.400375 233.882416,138.328461 
	C233.508392,138.781113 232.862808,139.067535 232.099564,139.115295 
z"/>
<path fill="#0E0E0E" opacity="1.000000" stroke="none" 
	d="
M237.088959,127.462646 
	C237.832123,127.385063 238.664368,127.680580 239.669342,128.274582 
	C238.954071,128.327301 238.066055,128.081528 237.088959,127.462646 
z"/>
<path fill="#E4E4E4" opacity="1.000000" stroke="none" 
	d="
M205.390198,67.313248 
	C208.680603,65.782417 211.535187,63.848579 214.651276,63.228031 
	C218.141479,62.532978 220.159500,65.449623 219.287567,68.920975 
	C217.241211,77.068123 201.527527,85.276497 193.541306,82.337898 
	C193.137283,82.189232 192.869858,81.669319 191.627747,80.367027 
	C196.140671,76.043716 200.605209,71.766747 205.390198,67.313248 
z"/>
<path fill="#C4C4C4" opacity="1.000000" stroke="none" 
	d="
M182.641953,73.900459 
	C185.849991,65.507156 192.185425,60.666363 199.476639,61.496201 
	C194.871170,66.203827 190.478790,70.693634 185.630035,75.533646 
	C184.464096,75.902496 183.754517,75.921127 183.044952,75.939774 
	C183.044952,75.939774 183.001999,75.999336 183.068207,75.620911 
	C182.970245,74.795151 182.806107,74.347801 182.641953,73.900459 
z"/>
<path fill="#3A3A3A" opacity="1.000000" stroke="none" 
	d="
M183.026886,76.292984 
	C183.754517,75.921127 184.464096,75.902496 185.531555,75.851746 
	C185.567078,78.318069 184.593796,78.548088 183.026886,76.292984 
z"/>
<path fill="#3A3A3A" opacity="1.000000" stroke="none" 
	d="
M182.354797,73.944649 
	C182.806107,74.347801 182.970245,74.795151 183.097458,75.598694 
	C182.729553,75.299538 182.398590,74.644188 182.354797,73.944649 
z"/>
</svg>