<svg version="1.1" id="Layer_1" xmlns="http://www.w3.org/2000/svg" xmlns:xlink="http://www.w3.org/1999/xlink" x="0px" y="0px"
	 width="100%" viewBox="0 0 287 120" enable-background="new 0 0 287 120" xml:space="preserve">
<path fill="#FEFEFE" opacity="1.000000" stroke="none" 
	d="
M179.000000,121.000000 
	C119.333351,121.000000 60.166702,121.000000 1.000040,121.000000 
	C1.000026,81.000031 1.000026,41.000061 1.000013,1.000067 
	C96.666603,1.000044 192.333206,1.000044 287.999878,1.000022 
	C287.999908,40.999928 287.999908,80.999855 287.999939,120.999893 
	C251.833328,121.000000 215.666672,121.000000 179.000000,121.000000 
M105.951958,58.400238 
	C105.657822,52.262764 105.540588,46.110336 105.023155,39.991745 
	C104.425018,32.918552 101.360115,29.394253 94.353752,29.251650 
	C77.079445,28.900066 59.789230,28.911766 42.513893,29.233273 
	C35.590397,29.362123 32.400795,32.300945 32.002697,39.415638 
	C31.420931,49.812645 31.571068,60.288315 32.101536,70.695168 
	C32.401623,76.582336 35.692905,79.707634 41.445816,79.798470 
	C59.381004,80.081612 77.326714,80.093712 95.261337,79.793182 
	C101.176491,79.694069 104.191338,76.200935 104.952339,70.284256 
	C105.418266,66.661774 105.620895,63.005436 105.951958,58.400238 
M225.577621,30.240517 
	C222.328003,29.949812 222.810379,32.276081 222.808411,34.224556 
	C222.798462,44.037529 222.803711,53.850510 222.803635,63.663490 
	C222.803604,68.090462 222.803635,72.517426 222.803635,77.379265 
	C225.283569,77.081841 227.036209,76.826149 228.797852,76.676758 
	C229.925522,76.581131 231.239822,76.266090 232.172760,76.695778 
	C237.381180,79.094597 242.042252,77.394600 242.618042,71.683167 
	C243.377914,64.145996 243.303024,56.441570 242.701294,48.879520 
	C242.301971,43.861130 237.453278,42.118595 232.872131,44.571457 
	C231.995834,45.040646 231.187973,45.637615 230.012619,46.390934 
	C230.012619,41.666534 229.844543,37.502476 230.069977,33.359833 
	C230.227982,30.456301 228.823105,29.959246 225.577621,30.240517 
M160.061707,62.454063 
	C160.201309,65.765915 159.972015,69.145462 160.564468,72.374214 
	C161.521210,77.588188 166.266586,79.426346 170.773041,76.617340 
	C171.805695,75.973648 172.690628,75.092979 173.643555,74.321373 
	C173.600861,74.821640 173.558167,75.321915 173.515457,75.822189 
	C175.608902,76.365974 177.702332,76.909752 180.048447,77.519173 
	C180.048447,65.861572 180.048447,55.111614 180.048447,44.371552 
	C177.552429,44.371552 175.331879,44.371552 172.853745,44.371552 
	C172.853745,52.182484 173.016281,59.652611 172.731628,67.105659 
	C172.666077,68.821877 171.066696,70.479507 170.173172,72.164101 
	C169.371109,70.509575 167.931839,68.876076 167.876450,67.196922 
	C167.626053,59.605663 167.766998,52.001492 167.766998,44.319382 
	C164.935257,44.319382 162.701431,44.319382 160.061722,44.319382 
	C160.061722,50.228268 160.061722,55.848049 160.061707,62.454063 
M198.382278,71.710625 
	C200.616959,79.054337 204.277634,79.812973 210.512558,75.400116 
	C213.564682,76.293053 215.672974,76.909866 218.132263,77.629364 
	C218.132263,65.912460 218.132263,55.149712 218.132263,44.341850 
	C215.666519,44.341850 213.440842,44.341850 210.922379,44.341850 
	C210.922379,52.116398 210.928162,59.576191 210.918930,67.035957 
	C210.916061,69.351402 211.294479,72.248810 207.852921,71.935501 
	C207.045807,71.862030 205.970520,68.923294 205.926010,67.278214 
	C205.720444,59.681011 205.835266,52.075138 205.835266,44.287521 
	C203.061172,44.287521 200.828384,44.287521 198.247543,44.287521 
	C198.247543,53.312862 198.247543,62.081062 198.382278,71.710625 
M155.857132,51.062813 
	C153.498291,44.811207 150.655777,42.885033 144.802612,43.571934 
	C139.153946,44.234829 136.463257,47.141129 136.076660,53.729877 
	C135.795578,58.520435 135.781906,63.358471 136.103119,68.144859 
	C136.544601,74.723442 139.744781,77.733376 145.739197,77.865623 
	C151.961258,78.002884 155.569016,74.906792 155.999252,68.268112 
	C156.351624,62.830883 156.007141,57.348499 155.857132,51.062813 
M136.678375,36.341240 
	C136.933243,34.974998 137.188095,33.608753 137.472595,32.083645 
	C134.817719,32.083645 132.688370,32.083645 130.247528,32.083645 
	C128.732056,38.947281 127.232132,45.740479 125.495743,53.604633 
	C123.795174,45.700630 122.338806,38.931614 120.907623,32.279705 
	C118.292465,32.279705 116.078239,32.279705 113.646523,32.279705 
	C116.562660,47.362415 123.963036,61.190777 121.752357,76.962898 
	C124.468254,76.962898 126.539330,76.962898 127.579521,76.962898 
	C129.476471,67.236542 131.205551,57.880322 133.162354,48.571964 
	C133.979614,44.684345 135.280853,40.898472 136.678375,36.341240 
M264.365631,46.276737 
	C258.493744,41.759659 249.500107,42.561577 248.527405,48.486187 
	C247.219589,56.451981 247.530518,64.882568 248.514297,72.946793 
	C249.056442,77.390846 255.482590,78.971725 260.714600,77.171379 
	C265.195435,75.629517 266.562073,72.872437 265.476837,67.272400 
	C263.744629,67.272400 261.970856,67.272400 260.197083,67.272400 
	C260.427917,67.550697 260.658752,67.828987 260.889618,68.107285 
	C259.443726,69.561317 257.997864,71.015350 256.551971,72.469376 
	C255.499908,69.654945 254.447845,66.840523 253.035568,63.062454 
	C258.500458,63.062454 262.399200,63.062454 267.411743,63.062454 
	C266.469574,57.214375 265.640442,52.067715 264.365631,46.276737 
M200.357529,36.414352 
	C200.257446,35.001991 200.157379,33.589626 200.068954,32.341679 
	C192.576813,32.341679 185.520874,32.341679 178.521606,32.341679 
	C178.521606,34.358822 178.521606,35.971130 178.521606,37.839462 
	C180.969742,37.989830 183.213791,38.127663 185.866074,38.290573 
	C185.866074,44.866722 185.866074,51.157959 185.866074,57.449196 
	C185.866074,63.888615 185.866074,70.328033 185.866074,76.929138 
	C188.495148,76.929138 190.569489,76.929138 193.123260,76.929138 
	C193.123260,63.973461 193.123260,51.240658 193.123260,38.567966 
	C195.811096,38.114826 198.023697,37.741806 200.357529,36.414352 
z"/>
<path fill="#DA4539" opacity="1.000000" stroke="none" 
	d="
M105.946861,58.882271 
	C105.620895,63.005436 105.418266,66.661774 104.952339,70.284256 
	C104.191338,76.200935 101.176491,79.694069 95.261337,79.793182 
	C77.326714,80.093712 59.381004,80.081612 41.445816,79.798470 
	C35.692905,79.707634 32.401623,76.582336 32.101536,70.695168 
	C31.571068,60.288315 31.420931,49.812645 32.002697,39.415638 
	C32.400795,32.300945 35.590397,29.362123 42.513893,29.233273 
	C59.789230,28.911766 77.079445,28.900066 94.353752,29.251650 
	C101.360115,29.394253 104.425018,32.918552 105.023155,39.991745 
	C105.540588,46.110336 105.657822,52.262764 105.946861,58.882271 
M60.929806,52.572334 
	C60.929806,56.666927 60.929806,60.761520 60.929806,65.913048 
	C67.837921,61.903358 73.858398,58.408882 80.505859,54.550488 
	C73.698143,50.646126 67.711571,47.212711 60.929779,43.323219 
	C60.929779,46.739250 60.929779,49.175552 60.929806,52.572334 
z"/>
<path fill="#313031" opacity="1.000000" stroke="none" 
	d="
M226.029694,30.239164 
	C228.823105,29.959246 230.227982,30.456301 230.069977,33.359833 
	C229.844543,37.502476 230.012619,41.666534 230.012619,46.390934 
	C231.187973,45.637615 231.995834,45.040646 232.872131,44.571457 
	C237.453278,42.118595 242.301971,43.861130 242.701294,48.879520 
	C243.303024,56.441570 243.377914,64.145996 242.618042,71.683167 
	C242.042252,77.394600 237.381180,79.094597 232.172760,76.695778 
	C231.239822,76.266090 229.925522,76.581131 228.797852,76.676758 
	C227.036209,76.826149 225.283569,77.081841 222.803635,77.379265 
	C222.803635,72.517426 222.803604,68.090462 222.803635,63.663490 
	C222.803711,53.850510 222.798462,44.037529 222.808411,34.224556 
	C222.810379,32.276081 222.328003,29.949812 226.029694,30.239164 
M235.645203,51.384022 
	C234.573502,50.642773 233.501801,49.901520 232.430130,49.160263 
	C231.622025,50.477936 230.198837,51.758614 230.116943,53.119957 
	C229.829407,57.900845 229.802460,62.722652 230.115723,67.500145 
	C230.219208,69.078316 231.652222,70.569305 232.477356,72.100166 
	C233.633850,70.602264 235.662033,69.172920 235.786240,67.593811 
	C236.186813,62.501354 235.886185,57.353737 235.645203,51.384022 
z"/>
<path fill="#343334" opacity="1.000000" stroke="none" 
	d="
M160.061707,61.960945 
	C160.061722,55.848049 160.061722,50.228268 160.061722,44.319382 
	C162.701431,44.319382 164.935257,44.319382 167.766998,44.319382 
	C167.766998,52.001492 167.626053,59.605663 167.876450,67.196922 
	C167.931839,68.876076 169.371109,70.509575 170.173172,72.164101 
	C171.066696,70.479507 172.666077,68.821877 172.731628,67.105659 
	C173.016281,59.652611 172.853745,52.182484 172.853745,44.371552 
	C175.331879,44.371552 177.552429,44.371552 180.048447,44.371552 
	C180.048447,55.111614 180.048447,65.861572 180.048447,77.519173 
	C177.702332,76.909752 175.608902,76.365974 173.515457,75.822189 
	C173.558167,75.321915 173.600861,74.821640 173.643555,74.321373 
	C172.690628,75.092979 171.805695,75.973648 170.773041,76.617340 
	C166.266586,79.426346 161.521210,77.588188 160.564468,72.374214 
	C159.972015,69.145462 160.201309,65.765915 160.061707,61.960945 
z"/>
<path fill="#333233" opacity="1.000000" stroke="none" 
	d="
M198.314911,71.279945 
	C198.247543,62.081062 198.247543,53.312862 198.247543,44.287521 
	C200.828384,44.287521 203.061172,44.287521 205.835266,44.287521 
	C205.835266,52.075138 205.720444,59.681011 205.926010,67.278214 
	C205.970520,68.923294 207.045807,71.862030 207.852921,71.935501 
	C211.294479,72.248810 210.916061,69.351402 210.918930,67.035957 
	C210.928162,59.576191 210.922379,52.116398 210.922379,44.341850 
	C213.440842,44.341850 215.666519,44.341850 218.132263,44.341850 
	C218.132263,55.149712 218.132263,65.912460 218.132263,77.629364 
	C215.672974,76.909866 213.564682,76.293053 210.512558,75.400116 
	C204.277634,79.812973 200.616959,79.054337 198.314911,71.279945 
z"/>
<path fill="#302F30" opacity="1.000000" stroke="none" 
	d="
M155.914352,51.474472 
	C156.007141,57.348499 156.351624,62.830883 155.999252,68.268112 
	C155.569016,74.906792 151.961258,78.002884 145.739197,77.865623 
	C139.744781,77.733376 136.544601,74.723442 136.103119,68.144859 
	C135.781906,63.358471 135.795578,58.520435 136.076660,53.729877 
	C136.463257,47.141129 139.153946,44.234829 144.802612,43.571934 
	C150.655777,42.885033 153.498291,44.811207 155.914352,51.474472 
M145.591446,48.925087 
	C144.879364,50.129322 143.603012,51.310410 143.552490,52.541790 
	C143.328644,57.997791 143.295502,63.476616 143.578674,68.927162 
	C143.643890,70.182144 145.230896,71.358070 146.117569,72.570381 
	C146.997635,71.319054 148.570969,70.103249 148.637192,68.810234 
	C148.916809,63.351494 148.881348,57.863762 148.637070,52.401119 
	C148.583786,51.209053 147.197800,50.076572 145.591446,48.925087 
z"/>
<path fill="#323132" opacity="1.000000" stroke="none" 
	d="
M136.520203,36.703789 
	C135.280853,40.898472 133.979614,44.684345 133.162354,48.571964 
	C131.205551,57.880322 129.476471,67.236542 127.579521,76.962898 
	C126.539330,76.962898 124.468254,76.962898 121.752357,76.962898 
	C123.963036,61.190777 116.562660,47.362415 113.646523,32.279705 
	C116.078239,32.279705 118.292465,32.279705 120.907623,32.279705 
	C122.338806,38.931614 123.795174,45.700630 125.495743,53.604633 
	C127.232132,45.740479 128.732056,38.947281 130.247528,32.083645 
	C132.688370,32.083645 134.817719,32.083645 137.472595,32.083645 
	C137.188095,33.608753 136.933243,34.974998 136.520203,36.703789 
z"/>
<path fill="#333233" opacity="1.000000" stroke="none" 
	d="
M264.588440,46.598896 
	C265.640442,52.067715 266.469574,57.214375 267.411743,63.062454 
	C262.399200,63.062454 258.500458,63.062454 253.035568,63.062454 
	C254.447845,66.840523 255.499908,69.654945 256.551971,72.469376 
	C257.997864,71.015350 259.443726,69.561317 260.889618,68.107285 
	C260.658752,67.828987 260.427917,67.550697 260.197083,67.272400 
	C261.970856,67.272400 263.744629,67.272400 265.476837,67.272400 
	C266.562073,72.872437 265.195435,75.629517 260.714600,77.171379 
	C255.482590,78.971725 249.056442,77.390846 248.514297,72.946793 
	C247.530518,64.882568 247.219589,56.451981 248.527405,48.486187 
	C249.500107,42.561577 258.493744,41.759659 264.588440,46.598896 
M257.374756,48.855812 
	C251.397339,50.658085 255.129578,55.155251 253.973175,58.888355 
	C256.259705,58.738098 257.796692,58.637093 260.214630,58.478199 
	C259.448212,54.990494 258.805847,52.067257 257.374756,48.855812 
z"/>
<path fill="#2E2D2E" opacity="1.000000" stroke="none" 
	d="
M200.296906,36.891571 
	C198.023697,37.741806 195.811096,38.114826 193.123260,38.567966 
	C193.123260,51.240658 193.123260,63.973461 193.123260,76.929138 
	C190.569489,76.929138 188.495148,76.929138 185.866074,76.929138 
	C185.866074,70.328033 185.866074,63.888615 185.866074,57.449196 
	C185.866074,51.157959 185.866074,44.866722 185.866074,38.290573 
	C183.213791,38.127663 180.969742,37.989830 178.521606,37.839462 
	C178.521606,35.971130 178.521606,34.358822 178.521606,32.341679 
	C185.520874,32.341679 192.576813,32.341679 200.068954,32.341679 
	C200.157379,33.589626 200.257446,35.001991 200.296906,36.891571 
z"/>
<path fill="#FDF8F7" opacity="1.000000" stroke="none" 
	d="
M60.929794,52.092094 
	C60.929779,49.175552 60.929779,46.739250 60.929779,43.323219 
	C67.711571,47.212711 73.698143,50.646126 80.505859,54.550488 
	C73.858398,58.408882 67.837921,61.903358 60.929806,65.913048 
	C60.929806,60.761520 60.929806,56.666927 60.929794,52.092094 
z"/>
<path fill="#F9F9F9" opacity="1.000000" stroke="none" 
	d="
M235.750534,51.805702 
	C235.886185,57.353737 236.186813,62.501354 235.786240,67.593811 
	C235.662033,69.172920 233.633850,70.602264 232.477341,72.100166 
	C231.652222,70.569305 230.219208,69.078316 230.115723,67.500145 
	C229.802460,62.722652 229.829407,57.900845 230.116943,53.119957 
	C230.198837,51.758614 231.622025,50.477936 232.430115,49.160267 
	C233.501801,49.901520 234.573502,50.642773 235.750534,51.805702 
z"/>
<path fill="#EAEAEA" opacity="1.000000" stroke="none" 
	d="
M146.008514,48.920868 
	C147.197800,50.076572 148.583786,51.209053 148.637070,52.401119 
	C148.881348,57.863762 148.916809,63.351494 148.637192,68.810234 
	C148.570969,70.103249 146.997635,71.319054 146.117569,72.570381 
	C145.230896,71.358070 143.643890,70.182144 143.578674,68.927162 
	C143.295502,63.476616 143.328644,57.997791 143.552490,52.541790 
	C143.603012,51.310410 144.879364,50.129322 146.008514,48.920868 
z"/>
<path fill="#E7E7E7" opacity="1.000000" stroke="none" 
	d="
M257.769104,48.999916 
	C258.805847,52.067257 259.448212,54.990494 260.214630,58.478199 
	C257.796692,58.637093 256.259705,58.738098 253.973175,58.888355 
	C255.129578,55.155251 251.397339,50.658085 257.769104,48.999916 
z"/>
</svg>